<?xml version="1.0" encoding="UTF-8" standalone="no"?>
<!DOCTYPE svg PUBLIC "-//W3C//DTD SVG 1.1//EN"
 "http://www.w3.org/Graphics/SVG/1.1/DTD/svg11.dtd">
<!-- Generated by graphviz version 2.38.0 (20140413.2041)
 -->
<!-- Title: controllers_diagram Pages: 1 -->
<svg width="424pt" height="339pt"
 viewBox="0.00 0.00 423.51 339.00" xmlns="http://www.w3.org/2000/svg" xmlns:xlink="http://www.w3.org/1999/xlink">
<g id="graph0" class="graph" transform="scale(1 1) rotate(0) translate(99.8208 223.5)">
<title>controllers_diagram</title>
<polygon fill="none" stroke="none" points="-99.8208,115.5 -99.8208,-223.5 323.688,-223.5 323.688,115.5 -99.8208,115.5"/>
<!-- _diagram_info -->
<g id="node1" class="node"><title>_diagram_info</title>
<text text-anchor="start" x="120.312" y="52.9" font-family="Times,serif" font-size="13.00">Controllers diagram</text>
<text text-anchor="start" x="120.312" y="65.9" font-family="Times,serif" font-size="13.00">Date: Sep 13 2016 &#45; 17:46</text>
<text text-anchor="start" x="120.312" y="78.9" font-family="Times,serif" font-size="13.00">Migration version: 20160913213137</text>
<text text-anchor="start" x="120.312" y="91.9" font-family="Times,serif" font-size="13.00">Generated by RailRoady 1.4.2</text>
<text text-anchor="start" x="120.312" y="104.9" font-family="Times,serif" font-size="13.00">http://railroady.prestonlee.com</text>
</g>
<!-- ApplicationController -->
<g id="node2" class="node"><title>ApplicationController</title>
<path fill="none" stroke="black" d="M124.179,-1C124.179,-1 239.821,-1 239.821,-1 245.821,-1 251.821,-7 251.821,-13 251.821,-13 251.821,-81 251.821,-81 251.821,-87 245.821,-93 239.821,-93 239.821,-93 124.179,-93 124.179,-93 118.179,-93 112.179,-87 112.179,-81 112.179,-81 112.179,-13 112.179,-13 112.179,-7 118.179,-1 124.179,-1"/>
<text text-anchor="middle" x="182" y="-77.8" font-family="Times,serif" font-size="14.00">ApplicationController</text>
<polyline fill="none" stroke="black" points="112.179,-71 251.821,-71 "/>
<polyline fill="none" stroke="black" points="112.179,-47 251.821,-47 "/>
<polyline fill="none" stroke="black" points="112.179,-23 251.821,-23 "/>
<text text-anchor="start" x="120.179" y="-7.8" font-family="Times,serif" font-size="14.00">_layout</text>
</g>
<!-- DashboardController -->
<g id="node3" class="node"><title>DashboardController</title>
<path fill="none" stroke="black" d="M139.903,-129C139.903,-129 250.097,-129 250.097,-129 256.097,-129 262.097,-135 262.097,-141 262.097,-141 262.097,-207 262.097,-207 262.097,-213 256.097,-219 250.097,-219 250.097,-219 139.903,-219 139.903,-219 133.903,-219 127.903,-213 127.903,-207 127.903,-207 127.903,-141 127.903,-141 127.903,-135 133.903,-129 139.903,-129"/>
<text text-anchor="middle" x="195" y="-203.8" font-family="Times,serif" font-size="14.00">DashboardController</text>
<polyline fill="none" stroke="black" points="127.903,-197 262.097,-197 "/>
<text text-anchor="start" x="135.903" y="-181.8" font-family="Times,serif" font-size="14.00">searches</text>
<polyline fill="none" stroke="black" points="127.903,-175 262.097,-175 "/>
<polyline fill="none" stroke="black" points="127.903,-151 262.097,-151 "/>
<text text-anchor="start" x="135.903" y="-135.8" font-family="Times,serif" font-size="14.00">_layout</text>
</g>
<!-- PatientController -->
<g id="node4" class="node"><title>PatientController</title>
<path fill="none" stroke="black" d="M-83.8208,95C-83.8208,95 73.8208,95 73.8208,95 79.8208,95 85.8208,89 85.8208,83 85.8208,83 85.8208,-81 85.8208,-81 85.8208,-87 79.8208,-93 73.8208,-93 73.8208,-93 -83.8208,-93 -83.8208,-93 -89.8208,-93 -95.8208,-87 -95.8208,-81 -95.8208,-81 -95.8208,83 -95.8208,83 -95.8208,89 -89.8208,95 -83.8208,95"/>
<text text-anchor="middle" x="-5" y="-77.8" font-family="Times,serif" font-size="14.00">PatientController</text>
<polyline fill="none" stroke="black" points="-95.8208,-71 85.8208,-71 "/>
<text text-anchor="start" x="-87.8208" y="-55.8" font-family="Times,serif" font-size="14.00">timestamp</text>
<text text-anchor="start" x="-87.8208" y="-41.8" font-family="Times,serif" font-size="14.00">patient_query_body_json</text>
<text text-anchor="start" x="-87.8208" y="-27.8" font-family="Times,serif" font-size="14.00">retrieve</text>
<text text-anchor="start" x="-87.8208" y="-13.8" font-family="Times,serif" font-size="14.00">search</text>
<text text-anchor="start" x="-87.8208" y="0.2" font-family="Times,serif" font-size="14.00">show</text>
<text text-anchor="start" x="-87.8208" y="14.2" font-family="Times,serif" font-size="14.00">successful_query?</text>
<text text-anchor="start" x="-87.8208" y="28.2" font-family="Times,serif" font-size="14.00">successful_response?</text>
<text text-anchor="start" x="-87.8208" y="42.2" font-family="Times,serif" font-size="14.00">clinical_summary_body_json</text>
<polyline fill="none" stroke="black" points="-95.8208,49 85.8208,49 "/>
<polyline fill="none" stroke="black" points="-95.8208,73 85.8208,73 "/>
<text text-anchor="start" x="-87.8208" y="88.2" font-family="Times,serif" font-size="14.00">_layout</text>
</g>
</g>
</svg>
