<?xml version="1.0" encoding="UTF-8" standalone="no"?>
<!DOCTYPE svg PUBLIC "-//W3C//DTD SVG 1.1//EN"
 "http://www.w3.org/Graphics/SVG/1.1/DTD/svg11.dtd">
<!-- Generated by graphviz version 2.38.0 (20140413.2041)
 -->
<!-- Title: controllers_diagram Pages: 1 -->
<svg width="468pt" height="333pt"
 viewBox="0.00 0.00 467.65 333.00" xmlns="http://www.w3.org/2000/svg" xmlns:xlink="http://www.w3.org/1999/xlink">
<g id="graph0" class="graph" transform="scale(1 1) rotate(0) translate(129.966 203.5)">
<title>controllers_diagram</title>
<polygon fill="none" stroke="none" points="-129.966,129.5 -129.966,-203.5 337.688,-203.5 337.688,129.5 -129.966,129.5"/>
<!-- _diagram_info -->
<g id="node1" class="node"><title>_diagram_info</title>
<text text-anchor="start" x="134.312" y="66.9" font-family="Times,serif" font-size="13.00">Controllers diagram</text>
<text text-anchor="start" x="134.312" y="79.9" font-family="Times,serif" font-size="13.00">Date: Sep 17 2016 &#45; 18:17</text>
<text text-anchor="start" x="134.312" y="92.9" font-family="Times,serif" font-size="13.00">Migration version: 20160917221347</text>
<text text-anchor="start" x="134.312" y="105.9" font-family="Times,serif" font-size="13.00">Generated by RailRoady 1.4.2</text>
<text text-anchor="start" x="134.312" y="118.9" font-family="Times,serif" font-size="13.00">http://railroady.prestonlee.com</text>
</g>
<!-- ApplicationController -->
<g id="node2" class="node"><title>ApplicationController</title>
<path fill="none" stroke="black" d="M138.179,17C138.179,17 253.821,17 253.821,17 259.821,17 265.821,11 265.821,5 265.821,5 265.821,-63 265.821,-63 265.821,-69 259.821,-75 253.821,-75 253.821,-75 138.179,-75 138.179,-75 132.179,-75 126.179,-69 126.179,-63 126.179,-63 126.179,5 126.179,5 126.179,11 132.179,17 138.179,17"/>
<text text-anchor="middle" x="196" y="-59.8" font-family="Times,serif" font-size="14.00">ApplicationController</text>
<polyline fill="none" stroke="black" points="126.179,-53 265.821,-53 "/>
<polyline fill="none" stroke="black" points="126.179,-29 265.821,-29 "/>
<polyline fill="none" stroke="black" points="126.179,-5 265.821,-5 "/>
<text text-anchor="start" x="134.179" y="10.2" font-family="Times,serif" font-size="14.00">_layout</text>
</g>
<!-- DashboardController -->
<g id="node3" class="node"><title>DashboardController</title>
<path fill="none" stroke="black" d="M137.903,-109C137.903,-109 248.097,-109 248.097,-109 254.097,-109 260.097,-115 260.097,-121 260.097,-121 260.097,-187 260.097,-187 260.097,-193 254.097,-199 248.097,-199 248.097,-199 137.903,-199 137.903,-199 131.903,-199 125.903,-193 125.903,-187 125.903,-187 125.903,-121 125.903,-121 125.903,-115 131.903,-109 137.903,-109"/>
<text text-anchor="middle" x="193" y="-183.8" font-family="Times,serif" font-size="14.00">DashboardController</text>
<polyline fill="none" stroke="black" points="125.903,-177 260.097,-177 "/>
<text text-anchor="start" x="133.903" y="-161.8" font-family="Times,serif" font-size="14.00">searches</text>
<polyline fill="none" stroke="black" points="125.903,-155 260.097,-155 "/>
<polyline fill="none" stroke="black" points="125.903,-131 260.097,-131 "/>
<text text-anchor="start" x="133.903" y="-115.8" font-family="Times,serif" font-size="14.00">_layout</text>
</g>
<!-- PatientController -->
<g id="node4" class="node"><title>PatientController</title>
<path fill="none" stroke="black" d="M-113.966,125C-113.966,125 87.9658,125 87.9658,125 93.9658,125 99.9658,119 99.9658,113 99.9658,113 99.9658,-107 99.9658,-107 99.9658,-113 93.9658,-119 87.9658,-119 87.9658,-119 -113.966,-119 -113.966,-119 -119.966,-119 -125.966,-113 -125.966,-107 -125.966,-107 -125.966,113 -125.966,113 -125.966,119 -119.966,125 -113.966,125"/>
<text text-anchor="middle" x="-13" y="-103.8" font-family="Times,serif" font-size="14.00">PatientController</text>
<polyline fill="none" stroke="black" points="-125.966,-97 99.9658,-97 "/>
<text text-anchor="start" x="-117.966" y="-81.8" font-family="Times,serif" font-size="14.00">timestamp</text>
<text text-anchor="start" x="-117.966" y="-67.8" font-family="Times,serif" font-size="14.00">patient_exists?</text>
<text text-anchor="start" x="-117.966" y="-53.8" font-family="Times,serif" font-size="14.00">patient_query_body_json</text>
<text text-anchor="start" x="-117.966" y="-39.8" font-family="Times,serif" font-size="14.00">retrieve</text>
<text text-anchor="start" x="-117.966" y="-25.8" font-family="Times,serif" font-size="14.00">save_patient</text>
<text text-anchor="start" x="-117.966" y="-11.8" font-family="Times,serif" font-size="14.00">save_to_recent_views</text>
<text text-anchor="start" x="-117.966" y="2.2" font-family="Times,serif" font-size="14.00">search</text>
<text text-anchor="start" x="-117.966" y="16.2" font-family="Times,serif" font-size="14.00">show</text>
<text text-anchor="start" x="-117.966" y="30.2" font-family="Times,serif" font-size="14.00">successful_clinical_summary_query?</text>
<text text-anchor="start" x="-117.966" y="44.2" font-family="Times,serif" font-size="14.00">successful_patient_query?</text>
<text text-anchor="start" x="-117.966" y="58.2" font-family="Times,serif" font-size="14.00">successful_response?</text>
<text text-anchor="start" x="-117.966" y="72.2" font-family="Times,serif" font-size="14.00">clinical_summary_body_json</text>
<polyline fill="none" stroke="black" points="-125.966,79 99.9658,79 "/>
<polyline fill="none" stroke="black" points="-125.966,103 99.9658,103 "/>
<text text-anchor="start" x="-117.966" y="118.2" font-family="Times,serif" font-size="14.00">_layout</text>
</g>
</g>
</svg>
