<?xml version="1.0" encoding="UTF-8" standalone="no"?>
<!DOCTYPE svg PUBLIC "-//W3C//DTD SVG 1.1//EN"
 "http://www.w3.org/Graphics/SVG/1.1/DTD/svg11.dtd">
<!-- Generated by graphviz version 2.38.0 (20140413.2041)
 -->
<!-- Title: controllers_diagram Pages: 1 -->
<svg width="474pt" height="441pt"
 viewBox="0.00 0.00 474.18 441.00" xmlns="http://www.w3.org/2000/svg" xmlns:xlink="http://www.w3.org/1999/xlink">
<g id="graph0" class="graph" transform="scale(1 1) rotate(0) translate(123.966 257.5)">
<title>controllers_diagram</title>
<polygon fill="none" stroke="none" points="-123.966,183.5 -123.966,-257.5 350.212,-257.5 350.212,183.5 -123.966,183.5"/>
<!-- _diagram_info -->
<g id="node1" class="node"><title>_diagram_info</title>
<text text-anchor="start" x="147.788" y="80.9" font-family="Times,serif" font-size="13.00">Controllers diagram</text>
<text text-anchor="start" x="147.788" y="93.9" font-family="Times,serif" font-size="13.00">Date: Nov 17 2016 &#45; 15:15</text>
<text text-anchor="start" x="147.788" y="106.9" font-family="Times,serif" font-size="13.00">Migration version: 20161117201440</text>
<text text-anchor="start" x="147.788" y="119.9" font-family="Times,serif" font-size="13.00">Generated by RailRoady 1.4.2</text>
<text text-anchor="start" x="147.788" y="132.9" font-family="Times,serif" font-size="13.00">http://railroady.prestonlee.com</text>
</g>
<!-- ApplicationController -->
<g id="node2" class="node"><title>ApplicationController</title>
<path fill="none" stroke="black" d="M172.179,-161C172.179,-161 287.821,-161 287.821,-161 293.821,-161 299.821,-167 299.821,-173 299.821,-173 299.821,-241 299.821,-241 299.821,-247 293.821,-253 287.821,-253 287.821,-253 172.179,-253 172.179,-253 166.179,-253 160.179,-247 160.179,-241 160.179,-241 160.179,-173 160.179,-173 160.179,-167 166.179,-161 172.179,-161"/>
<text text-anchor="middle" x="230" y="-237.8" font-family="Times,serif" font-size="14.00">ApplicationController</text>
<polyline fill="none" stroke="black" points="160.179,-231 299.821,-231 "/>
<polyline fill="none" stroke="black" points="160.179,-207 299.821,-207 "/>
<polyline fill="none" stroke="black" points="160.179,-183 299.821,-183 "/>
<text text-anchor="start" x="168.179" y="-167.8" font-family="Times,serif" font-size="14.00">_layout</text>
</g>
<!-- DashboardController -->
<g id="node3" class="node"><title>DashboardController</title>
<path fill="none" stroke="black" d="M151.903,19C151.903,19 262.097,19 262.097,19 268.097,19 274.097,13 274.097,7 274.097,7 274.097,-101 274.097,-101 274.097,-107 268.097,-113 262.097,-113 262.097,-113 151.903,-113 151.903,-113 145.903,-113 139.903,-107 139.903,-101 139.903,-101 139.903,7 139.903,7 139.903,13 145.903,19 151.903,19"/>
<text text-anchor="middle" x="207" y="-97.8" font-family="Times,serif" font-size="14.00">DashboardController</text>
<polyline fill="none" stroke="black" points="139.903,-91 274.097,-91 "/>
<text text-anchor="start" x="147.903" y="-75.8" font-family="Times,serif" font-size="14.00">searches</text>
<text text-anchor="start" x="147.903" y="-61.8" font-family="Times,serif" font-size="14.00">verify</text>
<polyline fill="none" stroke="black" points="139.903,-55 274.097,-55 "/>
<polyline fill="none" stroke="black" points="139.903,-31 274.097,-31 "/>
<text text-anchor="start" x="147.903" y="-15.8" font-family="Times,serif" font-size="14.00">_layout</text>
<text text-anchor="start" x="147.903" y="-1.8" font-family="Times,serif" font-size="14.00">verification_request?</text>
<text text-anchor="start" x="147.903" y="12.2" font-family="Times,serif" font-size="14.00">verify_token</text>
</g>
<!-- PatientController -->
<g id="node4" class="node"><title>PatientController</title>
<path fill="none" stroke="black" d="M-107.966,179C-107.966,179 93.9658,179 93.9658,179 99.9658,179 105.966,173 105.966,167 105.966,167 105.966,-137 105.966,-137 105.966,-143 99.9658,-149 93.9658,-149 93.9658,-149 -107.966,-149 -107.966,-149 -113.966,-149 -119.966,-143 -119.966,-137 -119.966,-137 -119.966,167 -119.966,167 -119.966,173 -113.966,179 -107.966,179"/>
<text text-anchor="middle" x="-7" y="-133.8" font-family="Times,serif" font-size="14.00">PatientController</text>
<polyline fill="none" stroke="black" points="-119.966,-127 105.966,-127 "/>
<text text-anchor="start" x="-111.966" y="-111.8" font-family="Times,serif" font-size="14.00">update_viewed_date</text>
<text text-anchor="start" x="-111.966" y="-97.8" font-family="Times,serif" font-size="14.00">clinical_summary_exists?</text>
<text text-anchor="start" x="-111.966" y="-83.8" font-family="Times,serif" font-size="14.00">patient_exists?</text>
<text text-anchor="start" x="-111.966" y="-69.8" font-family="Times,serif" font-size="14.00">patient_query_body_json</text>
<text text-anchor="start" x="-111.966" y="-55.8" font-family="Times,serif" font-size="14.00">recent_view_exists</text>
<text text-anchor="start" x="-111.966" y="-41.8" font-family="Times,serif" font-size="14.00">retrieve</text>
<text text-anchor="start" x="-111.966" y="-27.8" font-family="Times,serif" font-size="14.00">save_clinical_summary</text>
<text text-anchor="start" x="-111.966" y="-13.8" font-family="Times,serif" font-size="14.00">save_patient</text>
<text text-anchor="start" x="-111.966" y="0.2" font-family="Times,serif" font-size="14.00">save_to_recent_views</text>
<text text-anchor="start" x="-111.966" y="14.2" font-family="Times,serif" font-size="14.00">save_view</text>
<text text-anchor="start" x="-111.966" y="28.2" font-family="Times,serif" font-size="14.00">search</text>
<text text-anchor="start" x="-111.966" y="42.2" font-family="Times,serif" font-size="14.00">search_results</text>
<text text-anchor="start" x="-111.966" y="56.2" font-family="Times,serif" font-size="14.00">show</text>
<text text-anchor="start" x="-111.966" y="70.2" font-family="Times,serif" font-size="14.00">successful_clinical_summary_query?</text>
<text text-anchor="start" x="-111.966" y="84.2" font-family="Times,serif" font-size="14.00">successful_patient_query?</text>
<text text-anchor="start" x="-111.966" y="98.2" font-family="Times,serif" font-size="14.00">successful_response?</text>
<text text-anchor="start" x="-111.966" y="112.2" font-family="Times,serif" font-size="14.00">timestamp</text>
<text text-anchor="start" x="-111.966" y="126.2" font-family="Times,serif" font-size="14.00">clinical_summary_body_json</text>
<polyline fill="none" stroke="black" points="-119.966,133 105.966,133 "/>
<polyline fill="none" stroke="black" points="-119.966,157 105.966,157 "/>
<text text-anchor="start" x="-111.966" y="172.2" font-family="Times,serif" font-size="14.00">_layout</text>
</g>
</g>
</svg>
