<?xml version="1.0" encoding="UTF-8" standalone="no"?>
<!DOCTYPE svg PUBLIC "-//W3C//DTD SVG 1.1//EN"
 "http://www.w3.org/Graphics/SVG/1.1/DTD/svg11.dtd">
<!-- Generated by graphviz version 2.38.0 (20140413.2041)
 -->
<!-- Title: controllers_diagram Pages: 1 -->
<svg width="482pt" height="346pt"
 viewBox="0.00 0.00 481.65 346.00" xmlns="http://www.w3.org/2000/svg" xmlns:xlink="http://www.w3.org/1999/xlink">
<g id="graph0" class="graph" transform="scale(1 1) rotate(0) translate(117.966 190.5)">
<title>controllers_diagram</title>
<polygon fill="none" stroke="none" points="-117.966,155.5 -117.966,-190.5 363.688,-190.5 363.688,155.5 -117.966,155.5"/>
<!-- _diagram_info -->
<g id="node1" class="node"><title>_diagram_info</title>
<text text-anchor="start" x="160.312" y="92.9" font-family="Times,serif" font-size="13.00">Controllers diagram</text>
<text text-anchor="start" x="160.312" y="105.9" font-family="Times,serif" font-size="13.00">Date: Sep 17 2016 &#45; 19:15</text>
<text text-anchor="start" x="160.312" y="118.9" font-family="Times,serif" font-size="13.00">Migration version: 20160917222052</text>
<text text-anchor="start" x="160.312" y="131.9" font-family="Times,serif" font-size="13.00">Generated by RailRoady 1.4.2</text>
<text text-anchor="start" x="160.312" y="144.9" font-family="Times,serif" font-size="13.00">http://railroady.prestonlee.com</text>
</g>
<!-- ApplicationController -->
<g id="node2" class="node"><title>ApplicationController</title>
<path fill="none" stroke="black" d="M164.179,37C164.179,37 279.821,37 279.821,37 285.821,37 291.821,31 291.821,25 291.821,25 291.821,-43 291.821,-43 291.821,-49 285.821,-55 279.821,-55 279.821,-55 164.179,-55 164.179,-55 158.179,-55 152.179,-49 152.179,-43 152.179,-43 152.179,25 152.179,25 152.179,31 158.179,37 164.179,37"/>
<text text-anchor="middle" x="222" y="-39.8" font-family="Times,serif" font-size="14.00">ApplicationController</text>
<polyline fill="none" stroke="black" points="152.179,-33 291.821,-33 "/>
<polyline fill="none" stroke="black" points="152.179,-9 291.821,-9 "/>
<polyline fill="none" stroke="black" points="152.179,15 291.821,15 "/>
<text text-anchor="start" x="160.179" y="30.2" font-family="Times,serif" font-size="14.00">_layout</text>
</g>
<!-- DashboardController -->
<g id="node3" class="node"><title>DashboardController</title>
<path fill="none" stroke="black" d="M163.903,-96C163.903,-96 274.097,-96 274.097,-96 280.097,-96 286.097,-102 286.097,-108 286.097,-108 286.097,-174 286.097,-174 286.097,-180 280.097,-186 274.097,-186 274.097,-186 163.903,-186 163.903,-186 157.903,-186 151.903,-180 151.903,-174 151.903,-174 151.903,-108 151.903,-108 151.903,-102 157.903,-96 163.903,-96"/>
<text text-anchor="middle" x="219" y="-170.8" font-family="Times,serif" font-size="14.00">DashboardController</text>
<polyline fill="none" stroke="black" points="151.903,-164 286.097,-164 "/>
<text text-anchor="start" x="159.903" y="-148.8" font-family="Times,serif" font-size="14.00">searches</text>
<polyline fill="none" stroke="black" points="151.903,-142 286.097,-142 "/>
<polyline fill="none" stroke="black" points="151.903,-118 286.097,-118 "/>
<text text-anchor="start" x="159.903" y="-102.8" font-family="Times,serif" font-size="14.00">_layout</text>
</g>
<!-- PatientController -->
<g id="node4" class="node"><title>PatientController</title>
<path fill="none" stroke="black" d="M-101.966,132C-101.966,132 99.9658,132 99.9658,132 105.966,132 111.966,126 111.966,120 111.966,120 111.966,-114 111.966,-114 111.966,-120 105.966,-126 99.9658,-126 99.9658,-126 -101.966,-126 -101.966,-126 -107.966,-126 -113.966,-120 -113.966,-114 -113.966,-114 -113.966,120 -113.966,120 -113.966,126 -107.966,132 -101.966,132"/>
<text text-anchor="middle" x="-1" y="-110.8" font-family="Times,serif" font-size="14.00">PatientController</text>
<polyline fill="none" stroke="black" points="-113.966,-104 111.966,-104 "/>
<text text-anchor="start" x="-105.966" y="-88.8" font-family="Times,serif" font-size="14.00">timestamp</text>
<text text-anchor="start" x="-105.966" y="-74.8" font-family="Times,serif" font-size="14.00">patient_exists?</text>
<text text-anchor="start" x="-105.966" y="-60.8" font-family="Times,serif" font-size="14.00">patient_query_body_json</text>
<text text-anchor="start" x="-105.966" y="-46.8" font-family="Times,serif" font-size="14.00">retrieve</text>
<text text-anchor="start" x="-105.966" y="-32.8" font-family="Times,serif" font-size="14.00">save_clinical_summary</text>
<text text-anchor="start" x="-105.966" y="-18.8" font-family="Times,serif" font-size="14.00">save_patient</text>
<text text-anchor="start" x="-105.966" y="-4.8" font-family="Times,serif" font-size="14.00">save_to_recent_views</text>
<text text-anchor="start" x="-105.966" y="9.2" font-family="Times,serif" font-size="14.00">search</text>
<text text-anchor="start" x="-105.966" y="23.2" font-family="Times,serif" font-size="14.00">show</text>
<text text-anchor="start" x="-105.966" y="37.2" font-family="Times,serif" font-size="14.00">successful_clinical_summary_query?</text>
<text text-anchor="start" x="-105.966" y="51.2" font-family="Times,serif" font-size="14.00">successful_patient_query?</text>
<text text-anchor="start" x="-105.966" y="65.2" font-family="Times,serif" font-size="14.00">successful_response?</text>
<text text-anchor="start" x="-105.966" y="79.2" font-family="Times,serif" font-size="14.00">clinical_summary_body_json</text>
<polyline fill="none" stroke="black" points="-113.966,86 111.966,86 "/>
<polyline fill="none" stroke="black" points="-113.966,110 111.966,110 "/>
<text text-anchor="start" x="-105.966" y="125.2" font-family="Times,serif" font-size="14.00">_layout</text>
</g>
</g>
</svg>
