<?xml version="1.0" encoding="UTF-8" standalone="no"?>
<!DOCTYPE svg PUBLIC "-//W3C//DTD SVG 1.1//EN"
 "http://www.w3.org/Graphics/SVG/1.1/DTD/svg11.dtd">
<!-- Generated by graphviz version 2.38.0 (20140413.2041)
 -->
<!-- Title: controllers_diagram Pages: 1 -->
<svg width="474pt" height="399pt"
 viewBox="0.00 0.00 474.42 399.00" xmlns="http://www.w3.org/2000/svg" xmlns:xlink="http://www.w3.org/1999/xlink">
<g id="graph0" class="graph" transform="scale(1 1) rotate(0) translate(123.966 215.5)">
<title>controllers_diagram</title>
<polygon fill="none" stroke="none" points="-123.966,183.5 -123.966,-215.5 350.45,-215.5 350.45,183.5 -123.966,183.5"/>
<!-- _diagram_info -->
<g id="node1" class="node"><title>_diagram_info</title>
<text text-anchor="start" x="147.55" y="80.9" font-family="Times,serif" font-size="13.00">Controllers diagram</text>
<text text-anchor="start" x="147.55" y="93.9" font-family="Times,serif" font-size="13.00">Date: Nov 01 2016 &#45; 16:26</text>
<text text-anchor="start" x="147.55" y="106.9" font-family="Times,serif" font-size="13.00">Migration version: 20161101202259</text>
<text text-anchor="start" x="147.55" y="119.9" font-family="Times,serif" font-size="13.00">Generated by RailRoady 1.4.2</text>
<text text-anchor="start" x="147.55" y="132.9" font-family="Times,serif" font-size="13.00">http://railroady.prestonlee.com</text>
</g>
<!-- ApplicationController -->
<g id="node2" class="node"><title>ApplicationController</title>
<path fill="none" stroke="black" d="M152.179,19C152.179,19 267.821,19 267.821,19 273.821,19 279.821,13 279.821,7 279.821,7 279.821,-61 279.821,-61 279.821,-67 273.821,-73 267.821,-73 267.821,-73 152.179,-73 152.179,-73 146.179,-73 140.179,-67 140.179,-61 140.179,-61 140.179,7 140.179,7 140.179,13 146.179,19 152.179,19"/>
<text text-anchor="middle" x="210" y="-57.8" font-family="Times,serif" font-size="14.00">ApplicationController</text>
<polyline fill="none" stroke="black" points="140.179,-51 279.821,-51 "/>
<polyline fill="none" stroke="black" points="140.179,-27 279.821,-27 "/>
<polyline fill="none" stroke="black" points="140.179,-3 279.821,-3 "/>
<text text-anchor="start" x="148.179" y="12.2" font-family="Times,serif" font-size="14.00">_layout</text>
</g>
<!-- DashboardController -->
<g id="node3" class="node"><title>DashboardController</title>
<path fill="none" stroke="black" d="M151.903,-121C151.903,-121 262.097,-121 262.097,-121 268.097,-121 274.097,-127 274.097,-133 274.097,-133 274.097,-199 274.097,-199 274.097,-205 268.097,-211 262.097,-211 262.097,-211 151.903,-211 151.903,-211 145.903,-211 139.903,-205 139.903,-199 139.903,-199 139.903,-133 139.903,-133 139.903,-127 145.903,-121 151.903,-121"/>
<text text-anchor="middle" x="207" y="-195.8" font-family="Times,serif" font-size="14.00">DashboardController</text>
<polyline fill="none" stroke="black" points="139.903,-189 274.097,-189 "/>
<text text-anchor="start" x="147.903" y="-173.8" font-family="Times,serif" font-size="14.00">searches</text>
<polyline fill="none" stroke="black" points="139.903,-167 274.097,-167 "/>
<polyline fill="none" stroke="black" points="139.903,-143 274.097,-143 "/>
<text text-anchor="start" x="147.903" y="-127.8" font-family="Times,serif" font-size="14.00">_layout</text>
</g>
<!-- PatientController -->
<g id="node4" class="node"><title>PatientController</title>
<path fill="none" stroke="black" d="M-107.966,179C-107.966,179 93.9658,179 93.9658,179 99.9658,179 105.966,173 105.966,167 105.966,167 105.966,-137 105.966,-137 105.966,-143 99.9658,-149 93.9658,-149 93.9658,-149 -107.966,-149 -107.966,-149 -113.966,-149 -119.966,-143 -119.966,-137 -119.966,-137 -119.966,167 -119.966,167 -119.966,173 -113.966,179 -107.966,179"/>
<text text-anchor="middle" x="-7" y="-133.8" font-family="Times,serif" font-size="14.00">PatientController</text>
<polyline fill="none" stroke="black" points="-119.966,-127 105.966,-127 "/>
<text text-anchor="start" x="-111.966" y="-111.8" font-family="Times,serif" font-size="14.00">update_viewed_date</text>
<text text-anchor="start" x="-111.966" y="-97.8" font-family="Times,serif" font-size="14.00">clinical_summary_exists?</text>
<text text-anchor="start" x="-111.966" y="-83.8" font-family="Times,serif" font-size="14.00">patient_exists?</text>
<text text-anchor="start" x="-111.966" y="-69.8" font-family="Times,serif" font-size="14.00">patient_query_body_json</text>
<text text-anchor="start" x="-111.966" y="-55.8" font-family="Times,serif" font-size="14.00">recent_view_exists</text>
<text text-anchor="start" x="-111.966" y="-41.8" font-family="Times,serif" font-size="14.00">retrieve</text>
<text text-anchor="start" x="-111.966" y="-27.8" font-family="Times,serif" font-size="14.00">save_clinical_summary</text>
<text text-anchor="start" x="-111.966" y="-13.8" font-family="Times,serif" font-size="14.00">save_patient</text>
<text text-anchor="start" x="-111.966" y="0.2" font-family="Times,serif" font-size="14.00">save_to_recent_views</text>
<text text-anchor="start" x="-111.966" y="14.2" font-family="Times,serif" font-size="14.00">save_view</text>
<text text-anchor="start" x="-111.966" y="28.2" font-family="Times,serif" font-size="14.00">search</text>
<text text-anchor="start" x="-111.966" y="42.2" font-family="Times,serif" font-size="14.00">search_results</text>
<text text-anchor="start" x="-111.966" y="56.2" font-family="Times,serif" font-size="14.00">show</text>
<text text-anchor="start" x="-111.966" y="70.2" font-family="Times,serif" font-size="14.00">successful_clinical_summary_query?</text>
<text text-anchor="start" x="-111.966" y="84.2" font-family="Times,serif" font-size="14.00">successful_patient_query?</text>
<text text-anchor="start" x="-111.966" y="98.2" font-family="Times,serif" font-size="14.00">successful_response?</text>
<text text-anchor="start" x="-111.966" y="112.2" font-family="Times,serif" font-size="14.00">timestamp</text>
<text text-anchor="start" x="-111.966" y="126.2" font-family="Times,serif" font-size="14.00">clinical_summary_body_json</text>
<polyline fill="none" stroke="black" points="-119.966,133 105.966,133 "/>
<polyline fill="none" stroke="black" points="-119.966,157 105.966,157 "/>
<text text-anchor="start" x="-111.966" y="172.2" font-family="Times,serif" font-size="14.00">_layout</text>
</g>
</g>
</svg>
