<?xml version="1.0" encoding="UTF-8" standalone="no"?>
<!DOCTYPE svg PUBLIC "-//W3C//DTD SVG 1.1//EN"
 "http://www.w3.org/Graphics/SVG/1.1/DTD/svg11.dtd">
<!-- Generated by graphviz version 2.38.0 (20140413.2041)
 -->
<!-- Title: models_diagram Pages: 1 -->
<svg width="680pt" height="523pt"
 viewBox="0.00 0.00 679.71 523.00" xmlns="http://www.w3.org/2000/svg" xmlns:xlink="http://www.w3.org/1999/xlink">
<g id="graph0" class="graph" transform="scale(1 1) rotate(0) translate(4 519)">
<title>models_diagram</title>
<polygon fill="none" stroke="none" points="-4,4 -4,-519 675.709,-519 675.709,4 -4,4"/>
<!-- _diagram_info -->
<g id="node1" class="node"><title>_diagram_info</title>
<text text-anchor="start" x="8" y="-479.6" font-family="Times,serif" font-size="13.00">Models diagram</text>
<text text-anchor="start" x="8" y="-466.6" font-family="Times,serif" font-size="13.00">Date: Sep 17 2016 &#45; 19:15</text>
<text text-anchor="start" x="8" y="-453.6" font-family="Times,serif" font-size="13.00">Migration version: 20160917222052</text>
<text text-anchor="start" x="8" y="-440.6" font-family="Times,serif" font-size="13.00">Generated by RailRoady 1.4.2</text>
<text text-anchor="start" x="8" y="-427.6" font-family="Times,serif" font-size="13.00">http://railroady.prestonlee.com</text>
</g>
<!-- ClinicalSummary -->
<g id="node2" class="node"><title>ClinicalSummary</title>
<path fill="none" stroke="black" d="M353.825,-200.5C353.825,-200.5 577.55,-200.5 577.55,-200.5 583.55,-200.5 589.55,-206.5 589.55,-212.5 589.55,-212.5 589.55,-302.5 589.55,-302.5 589.55,-308.5 583.55,-314.5 577.55,-314.5 577.55,-314.5 353.825,-314.5 353.825,-314.5 347.825,-314.5 341.825,-308.5 341.825,-302.5 341.825,-302.5 341.825,-212.5 341.825,-212.5 341.825,-206.5 347.825,-200.5 353.825,-200.5"/>
<text text-anchor="middle" x="465.688" y="-299.3" font-family="Times,serif" font-size="14.00">ClinicalSummary</text>
<polyline fill="none" stroke="black" points="341.825,-292.5 589.55,-292.5 "/>
<text text-anchor="start" x="349.825" y="-277.3" font-family="Times,serif" font-size="14.00">id :integer</text>
<text text-anchor="start" x="349.825" y="-263.3" font-family="Times,serif" font-size="14.00">document_id :character varying</text>
<text text-anchor="start" x="349.825" y="-249.3" font-family="Times,serif" font-size="14.00">patient_id :integer</text>
<text text-anchor="start" x="349.825" y="-235.3" font-family="Times,serif" font-size="14.00">ehr_system_id :integer</text>
<text text-anchor="start" x="349.825" y="-221.3" font-family="Times,serif" font-size="14.00">created_at :timestamp without time zone</text>
<text text-anchor="start" x="349.825" y="-207.3" font-family="Times,serif" font-size="14.00">updated_at :timestamp without time zone</text>
</g>
<!-- RecentView -->
<g id="node5" class="node"><title>RecentView</title>
<path fill="none" stroke="black" d="M202.825,-0.5C202.825,-0.5 426.55,-0.5 426.55,-0.5 432.55,-0.5 438.55,-6.5 438.55,-12.5 438.55,-12.5 438.55,-102.5 438.55,-102.5 438.55,-108.5 432.55,-114.5 426.55,-114.5 426.55,-114.5 202.825,-114.5 202.825,-114.5 196.825,-114.5 190.825,-108.5 190.825,-102.5 190.825,-102.5 190.825,-12.5 190.825,-12.5 190.825,-6.5 196.825,-0.5 202.825,-0.5"/>
<text text-anchor="middle" x="314.688" y="-99.3" font-family="Times,serif" font-size="14.00">RecentView</text>
<polyline fill="none" stroke="black" points="190.825,-92.5 438.55,-92.5 "/>
<text text-anchor="start" x="198.825" y="-77.3" font-family="Times,serif" font-size="14.00">id :integer</text>
<text text-anchor="start" x="198.825" y="-63.3" font-family="Times,serif" font-size="14.00">user_id :integer</text>
<text text-anchor="start" x="198.825" y="-49.3" font-family="Times,serif" font-size="14.00">is_saved :boolean</text>
<text text-anchor="start" x="198.825" y="-35.3" font-family="Times,serif" font-size="14.00">created_at :timestamp without time zone</text>
<text text-anchor="start" x="198.825" y="-21.3" font-family="Times,serif" font-size="14.00">updated_at :timestamp without time zone</text>
<text text-anchor="start" x="198.825" y="-7.3" font-family="Times,serif" font-size="14.00">clinical_summary_id :integer</text>
</g>
<!-- ClinicalSummary&#45;&gt;RecentView -->
<g id="edge1" class="edge"><title>ClinicalSummary&#45;&gt;RecentView</title>
<path fill="none" stroke="#e38f5d" d="M417.95,-193.903C400.581,-171.129 380.935,-145.368 363.477,-122.475"/>
<ellipse fill="none" stroke="#e38f5d" cx="420.395" cy="-197.11" rx="4.00002" ry="4.00002"/>
<polygon fill="#e38f5d" stroke="#e38f5d" points="363.464,-122.458 360.978,-111.778 360.432,-118.483 357.4,-114.507 357.4,-114.507 357.4,-114.507 360.432,-118.483 353.822,-117.236 363.464,-122.458 363.464,-122.458"/>
</g>
<!-- EhrSystem -->
<g id="node3" class="node"><title>EhrSystem</title>
<path fill="none" stroke="black" d="M237.825,-407.5C237.825,-407.5 461.55,-407.5 461.55,-407.5 467.55,-407.5 473.55,-413.5 473.55,-419.5 473.55,-419.5 473.55,-495.5 473.55,-495.5 473.55,-501.5 467.55,-507.5 461.55,-507.5 461.55,-507.5 237.825,-507.5 237.825,-507.5 231.825,-507.5 225.825,-501.5 225.825,-495.5 225.825,-495.5 225.825,-419.5 225.825,-419.5 225.825,-413.5 231.825,-407.5 237.825,-407.5"/>
<text text-anchor="middle" x="349.688" y="-492.3" font-family="Times,serif" font-size="14.00">EhrSystem</text>
<polyline fill="none" stroke="black" points="225.825,-485.5 473.55,-485.5 "/>
<text text-anchor="start" x="233.825" y="-470.3" font-family="Times,serif" font-size="14.00">id :integer</text>
<text text-anchor="start" x="233.825" y="-456.3" font-family="Times,serif" font-size="14.00">redox_id :character varying</text>
<text text-anchor="start" x="233.825" y="-442.3" font-family="Times,serif" font-size="14.00">name :character varying</text>
<text text-anchor="start" x="233.825" y="-428.3" font-family="Times,serif" font-size="14.00">created_at :timestamp without time zone</text>
<text text-anchor="start" x="233.825" y="-414.3" font-family="Times,serif" font-size="14.00">updated_at :timestamp without time zone</text>
</g>
<!-- EhrSystem&#45;&gt;ClinicalSummary -->
<g id="edge2" class="edge"><title>EhrSystem&#45;&gt;ClinicalSummary</title>
<path fill="none" stroke="#67b25e" d="M382.638,-400.258C396.663,-376.318 413.108,-348.248 427.647,-323.431"/>
<ellipse fill="none" stroke="#67b25e" cx="380.533" cy="-403.85" rx="4.00002" ry="4.00002"/>
<polygon fill="#67b25e" stroke="#67b25e" points="427.648,-323.429 436.586,-317.075 430.176,-319.115 432.704,-314.801 432.704,-314.801 432.704,-314.801 430.176,-319.115 428.821,-312.526 427.648,-323.429 427.648,-323.429"/>
</g>
<!-- Patient -->
<g id="node4" class="node"><title>Patient</title>
<path fill="none" stroke="black" d="M503.667,-400.5C503.667,-400.5 659.709,-400.5 659.709,-400.5 665.709,-400.5 671.709,-406.5 671.709,-412.5 671.709,-412.5 671.709,-502.5 671.709,-502.5 671.709,-508.5 665.709,-514.5 659.709,-514.5 659.709,-514.5 503.667,-514.5 503.667,-514.5 497.667,-514.5 491.667,-508.5 491.667,-502.5 491.667,-502.5 491.667,-412.5 491.667,-412.5 491.667,-406.5 497.667,-400.5 503.667,-400.5"/>
<text text-anchor="middle" x="581.688" y="-499.3" font-family="Times,serif" font-size="14.00">Patient</text>
<polyline fill="none" stroke="black" points="491.667,-492.5 671.709,-492.5 "/>
<text text-anchor="start" x="499.667" y="-477.3" font-family="Times,serif" font-size="14.00">id :integer</text>
<text text-anchor="start" x="499.667" y="-463.3" font-family="Times,serif" font-size="14.00">nist_id :character varying</text>
<text text-anchor="start" x="499.667" y="-449.3" font-family="Times,serif" font-size="14.00">dob :character varying</text>
<text text-anchor="start" x="499.667" y="-435.3" font-family="Times,serif" font-size="14.00">ssn :character varying</text>
<text text-anchor="start" x="499.667" y="-421.3" font-family="Times,serif" font-size="14.00">last_name :character varying</text>
<text text-anchor="start" x="499.667" y="-407.3" font-family="Times,serif" font-size="14.00">first_name :character varying</text>
</g>
<!-- Patient&#45;&gt;ClinicalSummary -->
<g id="edge3" class="edge"><title>Patient&#45;&gt;ClinicalSummary</title>
<path fill="none" stroke="#f58390" d="M544.635,-393.255C531.547,-370.914 516.814,-345.767 503.651,-323.3"/>
<ellipse fill="none" stroke="#f58390" cx="546.735" cy="-396.839" rx="4.00002" ry="4.00002"/>
<polygon fill="#f58390" stroke="#f58390" points="503.555,-323.135 502.383,-312.232 501.027,-318.821 498.5,-314.507 498.5,-314.507 498.5,-314.507 501.027,-318.821 494.617,-316.782 503.555,-323.135 503.555,-323.135"/>
</g>
<!-- User -->
<g id="node6" class="node"><title>User</title>
<path fill="none" stroke="black" d="M17.053,-151.5C17.053,-151.5 312.323,-151.5 312.323,-151.5 318.323,-151.5 324.323,-157.5 324.323,-163.5 324.323,-163.5 324.323,-351.5 324.323,-351.5 324.323,-357.5 318.323,-363.5 312.323,-363.5 312.323,-363.5 17.053,-363.5 17.053,-363.5 11.053,-363.5 5.05298,-357.5 5.05298,-351.5 5.05298,-351.5 5.05298,-163.5 5.05298,-163.5 5.05298,-157.5 11.053,-151.5 17.053,-151.5"/>
<text text-anchor="middle" x="164.688" y="-348.3" font-family="Times,serif" font-size="14.00">User</text>
<polyline fill="none" stroke="black" points="5.05298,-341.5 324.323,-341.5 "/>
<text text-anchor="start" x="13.053" y="-326.3" font-family="Times,serif" font-size="14.00">updated_at :timestamp without time zone</text>
<text text-anchor="start" x="13.053" y="-312.3" font-family="Times,serif" font-size="14.00">email :character varying</text>
<text text-anchor="start" x="13.053" y="-298.3" font-family="Times,serif" font-size="14.00">encrypted_password :character varying</text>
<text text-anchor="start" x="13.053" y="-284.3" font-family="Times,serif" font-size="14.00">reset_password_token :character varying</text>
<text text-anchor="start" x="13.053" y="-270.3" font-family="Times,serif" font-size="14.00">reset_password_sent_at :timestamp without time zone</text>
<text text-anchor="start" x="13.053" y="-256.3" font-family="Times,serif" font-size="14.00">remember_created_at :timestamp without time zone</text>
<text text-anchor="start" x="13.053" y="-242.3" font-family="Times,serif" font-size="14.00">sign_in_count :integer</text>
<text text-anchor="start" x="13.053" y="-228.3" font-family="Times,serif" font-size="14.00">current_sign_in_at :timestamp without time zone</text>
<text text-anchor="start" x="13.053" y="-214.3" font-family="Times,serif" font-size="14.00">last_sign_in_at :timestamp without time zone</text>
<text text-anchor="start" x="13.053" y="-200.3" font-family="Times,serif" font-size="14.00">current_sign_in_ip :character varying</text>
<text text-anchor="start" x="13.053" y="-186.3" font-family="Times,serif" font-size="14.00">last_sign_in_ip :character varying</text>
<text text-anchor="start" x="13.053" y="-172.3" font-family="Times,serif" font-size="14.00">created_at :timestamp without time zone</text>
<text text-anchor="start" x="13.053" y="-158.3" font-family="Times,serif" font-size="14.00">id :integer</text>
</g>
<!-- User&#45;&gt;RecentView -->
<g id="edge4" class="edge"><title>User&#45;&gt;RecentView</title>
<path fill="none" stroke="#e02b7f" d="M249.241,-144.89C254.927,-137.385 260.538,-129.977 265.942,-122.845"/>
<ellipse fill="none" stroke="#e02b7f" cx="246.715" cy="-148.224" rx="4.00002" ry="4.00002"/>
<polygon fill="#e02b7f" stroke="#e02b7f" points="266.143,-122.579 275.768,-117.326 269.162,-118.594 272.181,-114.609 272.181,-114.609 272.181,-114.609 269.162,-118.594 268.594,-111.891 266.143,-122.579 266.143,-122.579"/>
</g>
</g>
</svg>
