<?xml version="1.0" encoding="UTF-8" standalone="no"?>
<!DOCTYPE svg PUBLIC "-//W3C//DTD SVG 1.1//EN"
 "http://www.w3.org/Graphics/SVG/1.1/DTD/svg11.dtd">
<!-- Generated by graphviz version 2.38.0 (20140413.2041)
 -->
<!-- Title: models_diagram Pages: 1 -->
<svg width="995pt" height="372pt"
 viewBox="0.00 0.00 995.32 372.00" xmlns="http://www.w3.org/2000/svg" xmlns:xlink="http://www.w3.org/1999/xlink">
<g id="graph0" class="graph" transform="scale(1 1) rotate(0) translate(4 368)">
<title>models_diagram</title>
<polygon fill="none" stroke="none" points="-4,4 -4,-368 991.323,-368 991.323,4 -4,4"/>
<!-- _diagram_info -->
<g id="node1" class="node"><title>_diagram_info</title>
<text text-anchor="start" x="8" y="-279.6" font-family="Times,serif" font-size="13.00">Models diagram</text>
<text text-anchor="start" x="8" y="-266.6" font-family="Times,serif" font-size="13.00">Date: Sep 17 2016 &#45; 18:17</text>
<text text-anchor="start" x="8" y="-253.6" font-family="Times,serif" font-size="13.00">Migration version: 20160917221347</text>
<text text-anchor="start" x="8" y="-240.6" font-family="Times,serif" font-size="13.00">Generated by RailRoady 1.4.2</text>
<text text-anchor="start" x="8" y="-227.6" font-family="Times,serif" font-size="13.00">http://railroady.prestonlee.com</text>
</g>
<!-- ClinicalSummary -->
<g id="node2" class="node"><title>ClinicalSummary</title>
<path fill="none" stroke="black" d="M343.825,-0.5C343.825,-0.5 567.55,-0.5 567.55,-0.5 573.55,-0.5 579.55,-6.5 579.55,-12.5 579.55,-12.5 579.55,-102.5 579.55,-102.5 579.55,-108.5 573.55,-114.5 567.55,-114.5 567.55,-114.5 343.825,-114.5 343.825,-114.5 337.825,-114.5 331.825,-108.5 331.825,-102.5 331.825,-102.5 331.825,-12.5 331.825,-12.5 331.825,-6.5 337.825,-0.5 343.825,-0.5"/>
<text text-anchor="middle" x="455.688" y="-99.3" font-family="Times,serif" font-size="14.00">ClinicalSummary</text>
<polyline fill="none" stroke="black" points="331.825,-92.5 579.55,-92.5 "/>
<text text-anchor="start" x="339.825" y="-77.3" font-family="Times,serif" font-size="14.00">id :integer</text>
<text text-anchor="start" x="339.825" y="-63.3" font-family="Times,serif" font-size="14.00">document_id :character varying</text>
<text text-anchor="start" x="339.825" y="-49.3" font-family="Times,serif" font-size="14.00">patient_id :integer</text>
<text text-anchor="start" x="339.825" y="-35.3" font-family="Times,serif" font-size="14.00">ehr_system_id :integer</text>
<text text-anchor="start" x="339.825" y="-21.3" font-family="Times,serif" font-size="14.00">created_at :timestamp without time zone</text>
<text text-anchor="start" x="339.825" y="-7.3" font-family="Times,serif" font-size="14.00">updated_at :timestamp without time zone</text>
</g>
<!-- EhrSystem -->
<g id="node3" class="node"><title>EhrSystem</title>
<path fill="none" stroke="black" d="M237.825,-207.5C237.825,-207.5 461.55,-207.5 461.55,-207.5 467.55,-207.5 473.55,-213.5 473.55,-219.5 473.55,-219.5 473.55,-295.5 473.55,-295.5 473.55,-301.5 467.55,-307.5 461.55,-307.5 461.55,-307.5 237.825,-307.5 237.825,-307.5 231.825,-307.5 225.825,-301.5 225.825,-295.5 225.825,-295.5 225.825,-219.5 225.825,-219.5 225.825,-213.5 231.825,-207.5 237.825,-207.5"/>
<text text-anchor="middle" x="349.688" y="-292.3" font-family="Times,serif" font-size="14.00">EhrSystem</text>
<polyline fill="none" stroke="black" points="225.825,-285.5 473.55,-285.5 "/>
<text text-anchor="start" x="233.825" y="-270.3" font-family="Times,serif" font-size="14.00">id :integer</text>
<text text-anchor="start" x="233.825" y="-256.3" font-family="Times,serif" font-size="14.00">redox_id :character varying</text>
<text text-anchor="start" x="233.825" y="-242.3" font-family="Times,serif" font-size="14.00">name :character varying</text>
<text text-anchor="start" x="233.825" y="-228.3" font-family="Times,serif" font-size="14.00">created_at :timestamp without time zone</text>
<text text-anchor="start" x="233.825" y="-214.3" font-family="Times,serif" font-size="14.00">updated_at :timestamp without time zone</text>
</g>
<!-- EhrSystem&#45;&gt;ClinicalSummary -->
<g id="edge1" class="edge"><title>EhrSystem&#45;&gt;ClinicalSummary</title>
<path fill="none" stroke="#442f79" d="M379.98,-199.916C392.707,-176.143 407.589,-148.345 420.773,-123.717"/>
<ellipse fill="none" stroke="#442f79" cx="377.914" cy="-203.775" rx="4.00002" ry="4.00002"/>
<polygon fill="#442f79" stroke="#442f79" points="420.827,-123.617 429.514,-116.925 423.187,-119.209 425.547,-114.801 425.547,-114.801 425.547,-114.801 423.187,-119.209 421.58,-112.677 420.827,-123.617 420.827,-123.617"/>
</g>
<!-- Patient -->
<g id="node4" class="node"><title>Patient</title>
<path fill="none" stroke="black" d="M503.16,-228.5C503.16,-228.5 638.216,-228.5 638.216,-228.5 644.216,-228.5 650.216,-234.5 650.216,-240.5 650.216,-240.5 650.216,-274.5 650.216,-274.5 650.216,-280.5 644.216,-286.5 638.216,-286.5 638.216,-286.5 503.16,-286.5 503.16,-286.5 497.16,-286.5 491.16,-280.5 491.16,-274.5 491.16,-274.5 491.16,-240.5 491.16,-240.5 491.16,-234.5 497.16,-228.5 503.16,-228.5"/>
<text text-anchor="middle" x="570.688" y="-271.3" font-family="Times,serif" font-size="14.00">Patient</text>
<polyline fill="none" stroke="black" points="491.16,-264.5 650.216,-264.5 "/>
<text text-anchor="start" x="499.16" y="-249.3" font-family="Times,serif" font-size="14.00">id :integer</text>
<text text-anchor="start" x="499.16" y="-235.3" font-family="Times,serif" font-size="14.00">nist_id :character varying</text>
</g>
<!-- Patient&#45;&gt;ClinicalSummary -->
<g id="edge2" class="edge"><title>Patient&#45;&gt;ClinicalSummary</title>
<path fill="none" stroke="#2d0efc" d="M550.015,-220.907C534.317,-193.879 512.295,-155.963 493.477,-123.564"/>
<ellipse fill="none" stroke="#2d0efc" cx="552.202" cy="-224.673" rx="4.00002" ry="4.00002"/>
<polygon fill="#2d0efc" stroke="#2d0efc" points="493.285,-123.233 492.154,-112.325 490.774,-118.909 488.263,-114.585 488.263,-114.585 488.263,-114.585 490.774,-118.909 484.371,-116.845 493.285,-123.233 493.285,-123.233"/>
</g>
<!-- RecentView -->
<g id="node5" class="node"><title>RecentView</title>
<path fill="none" stroke="black" d="M715.825,-7.5C715.825,-7.5 939.55,-7.5 939.55,-7.5 945.55,-7.5 951.55,-13.5 951.55,-19.5 951.55,-19.5 951.55,-95.5 951.55,-95.5 951.55,-101.5 945.55,-107.5 939.55,-107.5 939.55,-107.5 715.825,-107.5 715.825,-107.5 709.825,-107.5 703.825,-101.5 703.825,-95.5 703.825,-95.5 703.825,-19.5 703.825,-19.5 703.825,-13.5 709.825,-7.5 715.825,-7.5"/>
<text text-anchor="middle" x="827.688" y="-92.3" font-family="Times,serif" font-size="14.00">RecentView</text>
<polyline fill="none" stroke="black" points="703.825,-85.5 951.55,-85.5 "/>
<text text-anchor="start" x="711.825" y="-70.3" font-family="Times,serif" font-size="14.00">id :integer</text>
<text text-anchor="start" x="711.825" y="-56.3" font-family="Times,serif" font-size="14.00">user_id :integer</text>
<text text-anchor="start" x="711.825" y="-42.3" font-family="Times,serif" font-size="14.00">is_saved :boolean</text>
<text text-anchor="start" x="711.825" y="-28.3" font-family="Times,serif" font-size="14.00">created_at :timestamp without time zone</text>
<text text-anchor="start" x="711.825" y="-14.3" font-family="Times,serif" font-size="14.00">updated_at :timestamp without time zone</text>
</g>
<!-- User -->
<g id="node6" class="node"><title>User</title>
<path fill="none" stroke="black" d="M680.053,-151.5C680.053,-151.5 975.323,-151.5 975.323,-151.5 981.323,-151.5 987.323,-157.5 987.323,-163.5 987.323,-163.5 987.323,-351.5 987.323,-351.5 987.323,-357.5 981.323,-363.5 975.323,-363.5 975.323,-363.5 680.053,-363.5 680.053,-363.5 674.053,-363.5 668.053,-357.5 668.053,-351.5 668.053,-351.5 668.053,-163.5 668.053,-163.5 668.053,-157.5 674.053,-151.5 680.053,-151.5"/>
<text text-anchor="middle" x="827.688" y="-348.3" font-family="Times,serif" font-size="14.00">User</text>
<polyline fill="none" stroke="black" points="668.053,-341.5 987.323,-341.5 "/>
<text text-anchor="start" x="676.053" y="-326.3" font-family="Times,serif" font-size="14.00">updated_at :timestamp without time zone</text>
<text text-anchor="start" x="676.053" y="-312.3" font-family="Times,serif" font-size="14.00">email :character varying</text>
<text text-anchor="start" x="676.053" y="-298.3" font-family="Times,serif" font-size="14.00">encrypted_password :character varying</text>
<text text-anchor="start" x="676.053" y="-284.3" font-family="Times,serif" font-size="14.00">reset_password_token :character varying</text>
<text text-anchor="start" x="676.053" y="-270.3" font-family="Times,serif" font-size="14.00">reset_password_sent_at :timestamp without time zone</text>
<text text-anchor="start" x="676.053" y="-256.3" font-family="Times,serif" font-size="14.00">remember_created_at :timestamp without time zone</text>
<text text-anchor="start" x="676.053" y="-242.3" font-family="Times,serif" font-size="14.00">sign_in_count :integer</text>
<text text-anchor="start" x="676.053" y="-228.3" font-family="Times,serif" font-size="14.00">current_sign_in_at :timestamp without time zone</text>
<text text-anchor="start" x="676.053" y="-214.3" font-family="Times,serif" font-size="14.00">last_sign_in_at :timestamp without time zone</text>
<text text-anchor="start" x="676.053" y="-200.3" font-family="Times,serif" font-size="14.00">current_sign_in_ip :character varying</text>
<text text-anchor="start" x="676.053" y="-186.3" font-family="Times,serif" font-size="14.00">last_sign_in_ip :character varying</text>
<text text-anchor="start" x="676.053" y="-172.3" font-family="Times,serif" font-size="14.00">created_at :timestamp without time zone</text>
<text text-anchor="start" x="676.053" y="-158.3" font-family="Times,serif" font-size="14.00">id :integer</text>
</g>
<!-- User&#45;&gt;RecentView -->
<g id="edge3" class="edge"><title>User&#45;&gt;RecentView</title>
<path fill="none" stroke="#7cc3fd" d="M827.688,-143.257C827.688,-134.568 827.688,-126.028 827.688,-117.914"/>
<ellipse fill="none" stroke="#7cc3fd" cx="827.688" cy="-147.413" rx="4" ry="4"/>
<polygon fill="#7cc3fd" stroke="#7cc3fd" points="827.688,-117.883 832.188,-107.883 827.688,-112.883 827.688,-107.883 827.688,-107.883 827.688,-107.883 827.688,-112.883 823.188,-107.883 827.688,-117.883 827.688,-117.883"/>
</g>
</g>
</svg>
