<?xml version="1.0" encoding="UTF-8" standalone="no"?>
<!DOCTYPE svg PUBLIC "-//W3C//DTD SVG 1.1//EN"
 "http://www.w3.org/Graphics/SVG/1.1/DTD/svg11.dtd">
<!-- Generated by graphviz version 2.38.0 (20140413.2041)
 -->
<!-- Title: models_diagram Pages: 1 -->
<svg width="618pt" height="674pt"
 viewBox="0.00 0.00 617.66 674.00" xmlns="http://www.w3.org/2000/svg" xmlns:xlink="http://www.w3.org/1999/xlink">
<g id="graph0" class="graph" transform="scale(1 1) rotate(0) translate(4 670)">
<title>models_diagram</title>
<polygon fill="none" stroke="none" points="-4,4 -4,-670 613.656,-670 613.656,4 -4,4"/>
<!-- _diagram_info -->
<g id="node1" class="node"><title>_diagram_info</title>
<text text-anchor="start" x="120.423" y="-637.6" font-family="Times,serif" font-size="13.00">Models diagram</text>
<text text-anchor="start" x="120.423" y="-624.6" font-family="Times,serif" font-size="13.00">Date: Nov 17 2016 &#45; 15:02</text>
<text text-anchor="start" x="120.423" y="-611.6" font-family="Times,serif" font-size="13.00">Migration version: 20161117200032</text>
<text text-anchor="start" x="120.423" y="-598.6" font-family="Times,serif" font-size="13.00">Generated by RailRoady 1.4.2</text>
<text text-anchor="start" x="120.423" y="-585.6" font-family="Times,serif" font-size="13.00">http://railroady.prestonlee.com</text>
</g>
<!-- ClinicalSummary -->
<g id="node2" class="node"><title>ClinicalSummary</title>
<path fill="none" stroke="black" d="M348.772,-200.5C348.772,-200.5 572.497,-200.5 572.497,-200.5 578.497,-200.5 584.497,-206.5 584.497,-212.5 584.497,-212.5 584.497,-302.5 584.497,-302.5 584.497,-308.5 578.497,-314.5 572.497,-314.5 572.497,-314.5 348.772,-314.5 348.772,-314.5 342.772,-314.5 336.772,-308.5 336.772,-302.5 336.772,-302.5 336.772,-212.5 336.772,-212.5 336.772,-206.5 342.772,-200.5 348.772,-200.5"/>
<text text-anchor="middle" x="460.635" y="-299.3" font-family="Times,serif" font-size="14.00">ClinicalSummary</text>
<polyline fill="none" stroke="black" points="336.772,-292.5 584.497,-292.5 "/>
<text text-anchor="start" x="344.772" y="-277.3" font-family="Times,serif" font-size="14.00">id :integer</text>
<text text-anchor="start" x="344.772" y="-263.3" font-family="Times,serif" font-size="14.00">document_id :character varying</text>
<text text-anchor="start" x="344.772" y="-249.3" font-family="Times,serif" font-size="14.00">patient_id :integer</text>
<text text-anchor="start" x="344.772" y="-235.3" font-family="Times,serif" font-size="14.00">ehr_system_id :integer</text>
<text text-anchor="start" x="344.772" y="-221.3" font-family="Times,serif" font-size="14.00">created_at :timestamp without time zone</text>
<text text-anchor="start" x="344.772" y="-207.3" font-family="Times,serif" font-size="14.00">updated_at :timestamp without time zone</text>
</g>
<!-- RecentView -->
<g id="node5" class="node"><title>RecentView</title>
<path fill="none" stroke="black" d="M197.772,-0.5C197.772,-0.5 421.497,-0.5 421.497,-0.5 427.497,-0.5 433.497,-6.5 433.497,-12.5 433.497,-12.5 433.497,-102.5 433.497,-102.5 433.497,-108.5 427.497,-114.5 421.497,-114.5 421.497,-114.5 197.772,-114.5 197.772,-114.5 191.772,-114.5 185.772,-108.5 185.772,-102.5 185.772,-102.5 185.772,-12.5 185.772,-12.5 185.772,-6.5 191.772,-0.5 197.772,-0.5"/>
<text text-anchor="middle" x="309.635" y="-99.3" font-family="Times,serif" font-size="14.00">RecentView</text>
<polyline fill="none" stroke="black" points="185.772,-92.5 433.497,-92.5 "/>
<text text-anchor="start" x="193.772" y="-77.3" font-family="Times,serif" font-size="14.00">id :integer</text>
<text text-anchor="start" x="193.772" y="-63.3" font-family="Times,serif" font-size="14.00">user_id :integer</text>
<text text-anchor="start" x="193.772" y="-49.3" font-family="Times,serif" font-size="14.00">is_saved :boolean</text>
<text text-anchor="start" x="193.772" y="-35.3" font-family="Times,serif" font-size="14.00">created_at :timestamp without time zone</text>
<text text-anchor="start" x="193.772" y="-21.3" font-family="Times,serif" font-size="14.00">updated_at :timestamp without time zone</text>
<text text-anchor="start" x="193.772" y="-7.3" font-family="Times,serif" font-size="14.00">clinical_summary_id :integer</text>
</g>
<!-- ClinicalSummary&#45;&gt;RecentView -->
<g id="edge1" class="edge"><title>ClinicalSummary&#45;&gt;RecentView</title>
<path fill="none" stroke="#9e96b6" d="M412.897,-193.903C395.528,-171.129 375.882,-145.368 358.424,-122.475"/>
<ellipse fill="none" stroke="#9e96b6" cx="415.342" cy="-197.11" rx="4.00002" ry="4.00002"/>
<polygon fill="#9e96b6" stroke="#9e96b6" points="358.411,-122.458 355.925,-111.778 355.379,-118.483 352.347,-114.507 352.347,-114.507 352.347,-114.507 355.379,-118.483 348.769,-117.236 358.411,-122.458 358.411,-122.458"/>
</g>
<!-- EhrSystem -->
<g id="node3" class="node"><title>EhrSystem</title>
<path fill="none" stroke="black" d="M348.772,-565.5C348.772,-565.5 572.497,-565.5 572.497,-565.5 578.497,-565.5 584.497,-571.5 584.497,-577.5 584.497,-577.5 584.497,-653.5 584.497,-653.5 584.497,-659.5 578.497,-665.5 572.497,-665.5 572.497,-665.5 348.772,-665.5 348.772,-665.5 342.772,-665.5 336.772,-659.5 336.772,-653.5 336.772,-653.5 336.772,-577.5 336.772,-577.5 336.772,-571.5 342.772,-565.5 348.772,-565.5"/>
<text text-anchor="middle" x="460.635" y="-650.3" font-family="Times,serif" font-size="14.00">EhrSystem</text>
<polyline fill="none" stroke="black" points="336.772,-643.5 584.497,-643.5 "/>
<text text-anchor="start" x="344.772" y="-628.3" font-family="Times,serif" font-size="14.00">id :integer</text>
<text text-anchor="start" x="344.772" y="-614.3" font-family="Times,serif" font-size="14.00">redox_id :character varying</text>
<text text-anchor="start" x="344.772" y="-600.3" font-family="Times,serif" font-size="14.00">name :character varying</text>
<text text-anchor="start" x="344.772" y="-586.3" font-family="Times,serif" font-size="14.00">created_at :timestamp without time zone</text>
<text text-anchor="start" x="344.772" y="-572.3" font-family="Times,serif" font-size="14.00">updated_at :timestamp without time zone</text>
</g>
<!-- EhrSystem&#45;&gt;ClinicalSummary -->
<g id="edge3" class="edge"><title>EhrSystem&#45;&gt;ClinicalSummary</title>
<path fill="none" stroke="#7a1a42" d="M429.944,-557.753C426.097,-548.384 422.768,-538.593 420.635,-529 405.252,-459.819 421.413,-379.337 437.559,-324.259"/>
<ellipse fill="none" stroke="#7a1a42" cx="431.548" cy="-561.489" rx="4.00002" ry="4.00002"/>
<polygon fill="#7a1a42" stroke="#7a1a42" points="437.578,-324.197 444.769,-315.919 439.019,-319.409 440.46,-314.621 440.46,-314.621 440.46,-314.621 439.019,-319.409 436.151,-313.324 437.578,-324.197 437.578,-324.197"/>
</g>
<!-- Patient -->
<g id="node4" class="node"><title>Patient</title>
<path fill="none" stroke="black" d="M441.614,-400.5C441.614,-400.5 597.656,-400.5 597.656,-400.5 603.656,-400.5 609.656,-406.5 609.656,-412.5 609.656,-412.5 609.656,-516.5 609.656,-516.5 609.656,-522.5 603.656,-528.5 597.656,-528.5 597.656,-528.5 441.614,-528.5 441.614,-528.5 435.614,-528.5 429.614,-522.5 429.614,-516.5 429.614,-516.5 429.614,-412.5 429.614,-412.5 429.614,-406.5 435.614,-400.5 441.614,-400.5"/>
<text text-anchor="middle" x="519.635" y="-513.3" font-family="Times,serif" font-size="14.00">Patient</text>
<polyline fill="none" stroke="black" points="429.614,-506.5 609.656,-506.5 "/>
<text text-anchor="start" x="437.614" y="-491.3" font-family="Times,serif" font-size="14.00">ssn :character varying</text>
<text text-anchor="start" x="437.614" y="-477.3" font-family="Times,serif" font-size="14.00">mrn :character varying</text>
<text text-anchor="start" x="437.614" y="-463.3" font-family="Times,serif" font-size="14.00">dob :character varying</text>
<text text-anchor="start" x="437.614" y="-449.3" font-family="Times,serif" font-size="14.00">id :integer</text>
<text text-anchor="start" x="437.614" y="-435.3" font-family="Times,serif" font-size="14.00">last_name :character varying</text>
<text text-anchor="start" x="437.614" y="-421.3" font-family="Times,serif" font-size="14.00">first_name :character varying</text>
<text text-anchor="start" x="437.614" y="-407.3" font-family="Times,serif" font-size="14.00">ehr_system_id :integer</text>
</g>
<!-- EhrSystem&#45;&gt;Patient -->
<g id="edge2" class="edge"><title>EhrSystem&#45;&gt;Patient</title>
<path fill="none" stroke="#050245" d="M483.093,-557.783C485.62,-551.402 488.22,-544.837 490.812,-538.289"/>
<ellipse fill="none" stroke="#050245" cx="481.59" cy="-561.58" rx="4.00001" ry="4.00001"/>
<polygon fill="#050245" stroke="#050245" points="490.915,-538.029 498.781,-530.388 492.756,-533.38 494.597,-528.732 494.597,-528.732 494.597,-528.732 492.756,-533.38 490.413,-527.075 490.915,-538.029 490.915,-538.029"/>
</g>
<!-- Patient&#45;&gt;ClinicalSummary -->
<g id="edge4" class="edge"><title>Patient&#45;&gt;ClinicalSummary</title>
<path fill="none" stroke="#25163b" d="M499.201,-392.503C492.833,-370.376 485.841,-346.08 479.579,-324.323"/>
<ellipse fill="none" stroke="#25163b" cx="500.345" cy="-396.477" rx="4.00001" ry="4.00001"/>
<polygon fill="#25163b" stroke="#25163b" points="479.524,-324.132 481.083,-313.278 478.141,-319.327 476.758,-314.522 476.758,-314.522 476.758,-314.522 478.141,-319.327 472.434,-315.767 479.524,-324.132 479.524,-324.132"/>
</g>
<!-- User -->
<g id="node6" class="node"><title>User</title>
<path fill="none" stroke="black" d="M12,-151.5C12,-151.5 307.27,-151.5 307.27,-151.5 313.27,-151.5 319.27,-157.5 319.27,-163.5 319.27,-163.5 319.27,-351.5 319.27,-351.5 319.27,-357.5 313.27,-363.5 307.27,-363.5 307.27,-363.5 12,-363.5 12,-363.5 6,-363.5 0,-357.5 0,-351.5 0,-351.5 0,-163.5 0,-163.5 0,-157.5 6,-151.5 12,-151.5"/>
<text text-anchor="middle" x="159.635" y="-348.3" font-family="Times,serif" font-size="14.00">User</text>
<polyline fill="none" stroke="black" points="0,-341.5 319.27,-341.5 "/>
<text text-anchor="start" x="8" y="-326.3" font-family="Times,serif" font-size="14.00">updated_at :timestamp without time zone</text>
<text text-anchor="start" x="8" y="-312.3" font-family="Times,serif" font-size="14.00">email :character varying</text>
<text text-anchor="start" x="8" y="-298.3" font-family="Times,serif" font-size="14.00">encrypted_password :character varying</text>
<text text-anchor="start" x="8" y="-284.3" font-family="Times,serif" font-size="14.00">reset_password_token :character varying</text>
<text text-anchor="start" x="8" y="-270.3" font-family="Times,serif" font-size="14.00">reset_password_sent_at :timestamp without time zone</text>
<text text-anchor="start" x="8" y="-256.3" font-family="Times,serif" font-size="14.00">remember_created_at :timestamp without time zone</text>
<text text-anchor="start" x="8" y="-242.3" font-family="Times,serif" font-size="14.00">sign_in_count :integer</text>
<text text-anchor="start" x="8" y="-228.3" font-family="Times,serif" font-size="14.00">current_sign_in_at :timestamp without time zone</text>
<text text-anchor="start" x="8" y="-214.3" font-family="Times,serif" font-size="14.00">last_sign_in_at :timestamp without time zone</text>
<text text-anchor="start" x="8" y="-200.3" font-family="Times,serif" font-size="14.00">current_sign_in_ip :character varying</text>
<text text-anchor="start" x="8" y="-186.3" font-family="Times,serif" font-size="14.00">last_sign_in_ip :character varying</text>
<text text-anchor="start" x="8" y="-172.3" font-family="Times,serif" font-size="14.00">created_at :timestamp without time zone</text>
<text text-anchor="start" x="8" y="-158.3" font-family="Times,serif" font-size="14.00">id :integer</text>
</g>
<!-- User&#45;&gt;RecentView -->
<g id="edge5" class="edge"><title>User&#45;&gt;RecentView</title>
<path fill="none" stroke="#a92d36" d="M244.188,-144.89C249.874,-137.385 255.485,-129.977 260.889,-122.845"/>
<ellipse fill="none" stroke="#a92d36" cx="241.662" cy="-148.224" rx="4.00002" ry="4.00002"/>
<polygon fill="#a92d36" stroke="#a92d36" points="261.09,-122.579 270.715,-117.326 264.109,-118.594 267.128,-114.609 267.128,-114.609 267.128,-114.609 264.109,-118.594 263.541,-111.891 261.09,-122.579 261.09,-122.579"/>
</g>
</g>
</svg>
