<?xml version="1.0" encoding="UTF-8" standalone="no"?>
<!DOCTYPE svg PUBLIC "-//W3C//DTD SVG 1.1//EN"
 "http://www.w3.org/Graphics/SVG/1.1/DTD/svg11.dtd">
<!-- Generated by graphviz version 2.38.0 (20140413.2041)
 -->
<!-- Title: models_diagram Pages: 1 -->
<svg width="1017pt" height="221pt"
 viewBox="0.00 0.00 1017.32 221.00" xmlns="http://www.w3.org/2000/svg" xmlns:xlink="http://www.w3.org/1999/xlink">
<g id="graph0" class="graph" transform="scale(1 1) rotate(0) translate(4 217)">
<title>models_diagram</title>
<polygon fill="none" stroke="none" points="-4,4 -4,-217 1013.32,-217 1013.32,4 -4,4"/>
<!-- _diagram_info -->
<g id="node1" class="node"><title>_diagram_info</title>
<text text-anchor="start" x="8" y="-128.6" font-family="Times,serif" font-size="13.00">Models diagram</text>
<text text-anchor="start" x="8" y="-115.6" font-family="Times,serif" font-size="13.00">Date: Sep 13 2016 &#45; 17:45</text>
<text text-anchor="start" x="8" y="-102.6" font-family="Times,serif" font-size="13.00">Migration version: 20160913213137</text>
<text text-anchor="start" x="8" y="-89.6" font-family="Times,serif" font-size="13.00">Generated by RailRoady 1.4.2</text>
<text text-anchor="start" x="8" y="-76.6" font-family="Times,serif" font-size="13.00">http://railroady.prestonlee.com</text>
</g>
<!-- EhrSystem -->
<g id="node2" class="node"><title>EhrSystem</title>
<path fill="none" stroke="black" d="M237.825,-56.5C237.825,-56.5 461.55,-56.5 461.55,-56.5 467.55,-56.5 473.55,-62.5 473.55,-68.5 473.55,-68.5 473.55,-144.5 473.55,-144.5 473.55,-150.5 467.55,-156.5 461.55,-156.5 461.55,-156.5 237.825,-156.5 237.825,-156.5 231.825,-156.5 225.825,-150.5 225.825,-144.5 225.825,-144.5 225.825,-68.5 225.825,-68.5 225.825,-62.5 231.825,-56.5 237.825,-56.5"/>
<text text-anchor="middle" x="349.688" y="-141.3" font-family="Times,serif" font-size="14.00">EhrSystem</text>
<polyline fill="none" stroke="black" points="225.825,-134.5 473.55,-134.5 "/>
<text text-anchor="start" x="233.825" y="-119.3" font-family="Times,serif" font-size="14.00">id :integer</text>
<text text-anchor="start" x="233.825" y="-105.3" font-family="Times,serif" font-size="14.00">redox_id :character varying</text>
<text text-anchor="start" x="233.825" y="-91.3" font-family="Times,serif" font-size="14.00">name :character varying</text>
<text text-anchor="start" x="233.825" y="-77.3" font-family="Times,serif" font-size="14.00">created_at :timestamp without time zone</text>
<text text-anchor="start" x="233.825" y="-63.3" font-family="Times,serif" font-size="14.00">updated_at :timestamp without time zone</text>
</g>
<!-- Patient -->
<g id="node3" class="node"><title>Patient</title>
<path fill="none" stroke="black" d="M503.667,-49.5C503.667,-49.5 659.709,-49.5 659.709,-49.5 665.709,-49.5 671.709,-55.5 671.709,-61.5 671.709,-61.5 671.709,-151.5 671.709,-151.5 671.709,-157.5 665.709,-163.5 659.709,-163.5 659.709,-163.5 503.667,-163.5 503.667,-163.5 497.667,-163.5 491.667,-157.5 491.667,-151.5 491.667,-151.5 491.667,-61.5 491.667,-61.5 491.667,-55.5 497.667,-49.5 503.667,-49.5"/>
<text text-anchor="middle" x="581.688" y="-148.3" font-family="Times,serif" font-size="14.00">Patient</text>
<polyline fill="none" stroke="black" points="491.667,-141.5 671.709,-141.5 "/>
<text text-anchor="start" x="499.667" y="-126.3" font-family="Times,serif" font-size="14.00">id :integer</text>
<text text-anchor="start" x="499.667" y="-112.3" font-family="Times,serif" font-size="14.00">nist_id :character varying</text>
<text text-anchor="start" x="499.667" y="-98.3" font-family="Times,serif" font-size="14.00">first_name :character varying</text>
<text text-anchor="start" x="499.667" y="-84.3" font-family="Times,serif" font-size="14.00">last_name :character varying</text>
<text text-anchor="start" x="499.667" y="-70.3" font-family="Times,serif" font-size="14.00">ssn :character varying</text>
<text text-anchor="start" x="499.667" y="-56.3" font-family="Times,serif" font-size="14.00">dob :character varying</text>
</g>
<!-- User -->
<g id="node4" class="node"><title>User</title>
<path fill="none" stroke="black" d="M702.053,-0.5C702.053,-0.5 997.323,-0.5 997.323,-0.5 1003.32,-0.5 1009.32,-6.5 1009.32,-12.5 1009.32,-12.5 1009.32,-200.5 1009.32,-200.5 1009.32,-206.5 1003.32,-212.5 997.323,-212.5 997.323,-212.5 702.053,-212.5 702.053,-212.5 696.053,-212.5 690.053,-206.5 690.053,-200.5 690.053,-200.5 690.053,-12.5 690.053,-12.5 690.053,-6.5 696.053,-0.5 702.053,-0.5"/>
<text text-anchor="middle" x="849.688" y="-197.3" font-family="Times,serif" font-size="14.00">User</text>
<polyline fill="none" stroke="black" points="690.053,-190.5 1009.32,-190.5 "/>
<text text-anchor="start" x="698.053" y="-175.3" font-family="Times,serif" font-size="14.00">updated_at :timestamp without time zone</text>
<text text-anchor="start" x="698.053" y="-161.3" font-family="Times,serif" font-size="14.00">email :character varying</text>
<text text-anchor="start" x="698.053" y="-147.3" font-family="Times,serif" font-size="14.00">encrypted_password :character varying</text>
<text text-anchor="start" x="698.053" y="-133.3" font-family="Times,serif" font-size="14.00">reset_password_token :character varying</text>
<text text-anchor="start" x="698.053" y="-119.3" font-family="Times,serif" font-size="14.00">reset_password_sent_at :timestamp without time zone</text>
<text text-anchor="start" x="698.053" y="-105.3" font-family="Times,serif" font-size="14.00">remember_created_at :timestamp without time zone</text>
<text text-anchor="start" x="698.053" y="-91.3" font-family="Times,serif" font-size="14.00">sign_in_count :integer</text>
<text text-anchor="start" x="698.053" y="-77.3" font-family="Times,serif" font-size="14.00">current_sign_in_at :timestamp without time zone</text>
<text text-anchor="start" x="698.053" y="-63.3" font-family="Times,serif" font-size="14.00">last_sign_in_at :timestamp without time zone</text>
<text text-anchor="start" x="698.053" y="-49.3" font-family="Times,serif" font-size="14.00">current_sign_in_ip :character varying</text>
<text text-anchor="start" x="698.053" y="-35.3" font-family="Times,serif" font-size="14.00">last_sign_in_ip :character varying</text>
<text text-anchor="start" x="698.053" y="-21.3" font-family="Times,serif" font-size="14.00">created_at :timestamp without time zone</text>
<text text-anchor="start" x="698.053" y="-7.3" font-family="Times,serif" font-size="14.00">id :integer</text>
</g>
</g>
</svg>
