<?xml version="1.0" encoding="UTF-8" standalone="no"?>
<!DOCTYPE svg PUBLIC "-//W3C//DTD SVG 1.1//EN"
 "http://www.w3.org/Graphics/SVG/1.1/DTD/svg11.dtd">
<!-- Generated by graphviz version 2.38.0 (20140413.2041)
 -->
<!-- Title: models_diagram Pages: 1 -->
<svg width="751pt" height="221pt"
 viewBox="0.00 0.00 751.32 221.00" xmlns="http://www.w3.org/2000/svg" xmlns:xlink="http://www.w3.org/1999/xlink">
<g id="graph0" class="graph" transform="scale(1 1) rotate(0) translate(4 217)">
<title>models_diagram</title>
<polygon fill="none" stroke="none" points="-4,4 -4,-217 747.323,-217 747.323,4 -4,4"/>
<!-- _diagram_info -->
<g id="node1" class="node"><title>_diagram_info</title>
<text text-anchor="start" x="8" y="-128.6" font-family="Times,serif" font-size="13.00">Models diagram</text>
<text text-anchor="start" x="8" y="-115.6" font-family="Times,serif" font-size="13.00">Date: Sep 13 2016 &#45; 12:27</text>
<text text-anchor="start" x="8" y="-102.6" font-family="Times,serif" font-size="13.00">Migration version: 20160913160734</text>
<text text-anchor="start" x="8" y="-89.6" font-family="Times,serif" font-size="13.00">Generated by RailRoady 1.4.2</text>
<text text-anchor="start" x="8" y="-76.6" font-family="Times,serif" font-size="13.00">http://railroady.prestonlee.com</text>
</g>
<!-- Patient -->
<g id="node2" class="node"><title>Patient</title>
<path fill="none" stroke="black" d="M237.667,-49.5C237.667,-49.5 393.709,-49.5 393.709,-49.5 399.709,-49.5 405.709,-55.5 405.709,-61.5 405.709,-61.5 405.709,-151.5 405.709,-151.5 405.709,-157.5 399.709,-163.5 393.709,-163.5 393.709,-163.5 237.667,-163.5 237.667,-163.5 231.667,-163.5 225.667,-157.5 225.667,-151.5 225.667,-151.5 225.667,-61.5 225.667,-61.5 225.667,-55.5 231.667,-49.5 237.667,-49.5"/>
<text text-anchor="middle" x="315.688" y="-148.3" font-family="Times,serif" font-size="14.00">Patient</text>
<polyline fill="none" stroke="black" points="225.667,-141.5 405.709,-141.5 "/>
<text text-anchor="start" x="233.667" y="-126.3" font-family="Times,serif" font-size="14.00">id :integer</text>
<text text-anchor="start" x="233.667" y="-112.3" font-family="Times,serif" font-size="14.00">nist_id :character varying</text>
<text text-anchor="start" x="233.667" y="-98.3" font-family="Times,serif" font-size="14.00">first_name :character varying</text>
<text text-anchor="start" x="233.667" y="-84.3" font-family="Times,serif" font-size="14.00">last_name :character varying</text>
<text text-anchor="start" x="233.667" y="-70.3" font-family="Times,serif" font-size="14.00">ssn :character varying</text>
<text text-anchor="start" x="233.667" y="-56.3" font-family="Times,serif" font-size="14.00">dob :character varying</text>
</g>
<!-- User -->
<g id="node3" class="node"><title>User</title>
<path fill="none" stroke="black" d="M436.053,-0.5C436.053,-0.5 731.323,-0.5 731.323,-0.5 737.323,-0.5 743.323,-6.5 743.323,-12.5 743.323,-12.5 743.323,-200.5 743.323,-200.5 743.323,-206.5 737.323,-212.5 731.323,-212.5 731.323,-212.5 436.053,-212.5 436.053,-212.5 430.053,-212.5 424.053,-206.5 424.053,-200.5 424.053,-200.5 424.053,-12.5 424.053,-12.5 424.053,-6.5 430.053,-0.5 436.053,-0.5"/>
<text text-anchor="middle" x="583.688" y="-197.3" font-family="Times,serif" font-size="14.00">User</text>
<polyline fill="none" stroke="black" points="424.053,-190.5 743.323,-190.5 "/>
<text text-anchor="start" x="432.053" y="-175.3" font-family="Times,serif" font-size="14.00">updated_at :timestamp without time zone</text>
<text text-anchor="start" x="432.053" y="-161.3" font-family="Times,serif" font-size="14.00">email :character varying</text>
<text text-anchor="start" x="432.053" y="-147.3" font-family="Times,serif" font-size="14.00">encrypted_password :character varying</text>
<text text-anchor="start" x="432.053" y="-133.3" font-family="Times,serif" font-size="14.00">reset_password_token :character varying</text>
<text text-anchor="start" x="432.053" y="-119.3" font-family="Times,serif" font-size="14.00">reset_password_sent_at :timestamp without time zone</text>
<text text-anchor="start" x="432.053" y="-105.3" font-family="Times,serif" font-size="14.00">remember_created_at :timestamp without time zone</text>
<text text-anchor="start" x="432.053" y="-91.3" font-family="Times,serif" font-size="14.00">sign_in_count :integer</text>
<text text-anchor="start" x="432.053" y="-77.3" font-family="Times,serif" font-size="14.00">current_sign_in_at :timestamp without time zone</text>
<text text-anchor="start" x="432.053" y="-63.3" font-family="Times,serif" font-size="14.00">last_sign_in_at :timestamp without time zone</text>
<text text-anchor="start" x="432.053" y="-49.3" font-family="Times,serif" font-size="14.00">current_sign_in_ip :character varying</text>
<text text-anchor="start" x="432.053" y="-35.3" font-family="Times,serif" font-size="14.00">last_sign_in_ip :character varying</text>
<text text-anchor="start" x="432.053" y="-21.3" font-family="Times,serif" font-size="14.00">created_at :timestamp without time zone</text>
<text text-anchor="start" x="432.053" y="-7.3" font-family="Times,serif" font-size="14.00">id :integer</text>
</g>
</g>
</svg>
