<?xml version="1.0" encoding="UTF-8" standalone="no"?>
<!DOCTYPE svg PUBLIC "-//W3C//DTD SVG 1.1//EN"
 "http://www.w3.org/Graphics/SVG/1.1/DTD/svg11.dtd">
<!-- Generated by graphviz version 2.38.0 (20140413.2041)
 -->
<!-- Title: models_diagram Pages: 1 -->
<svg width="354pt" height="297pt"
 viewBox="0.00 0.00 353.71 297.00" xmlns="http://www.w3.org/2000/svg" xmlns:xlink="http://www.w3.org/1999/xlink">
<g id="graph0" class="graph" transform="scale(1 1) rotate(0) translate(4 293)">
<title>models_diagram</title>
<polygon fill="none" stroke="none" points="-4,4 -4,-293 349.706,-293 349.706,4 -4,4"/>
<!-- _diagram_info -->
<g id="node1" class="node"><title>_diagram_info</title>
<text text-anchor="start" x="8" y="-274.6" font-family="Times,serif" font-size="13.00">Models diagram</text>
<text text-anchor="start" x="8" y="-261.6" font-family="Times,serif" font-size="13.00">Date: Nov 17 2016 &#45; 15:15</text>
<text text-anchor="start" x="8" y="-248.6" font-family="Times,serif" font-size="13.00">Migration version: 20161117201440</text>
<text text-anchor="start" x="8" y="-235.6" font-family="Times,serif" font-size="13.00">Generated by RailRoady 1.4.2</text>
<text text-anchor="start" x="8" y="-222.6" font-family="Times,serif" font-size="13.00">http://railroady.prestonlee.com</text>
</g>
<!-- ClinicalSummary -->
<g id="node2" class="node"><title>ClinicalSummary</title>
<ellipse fill="none" stroke="black" cx="273.212" cy="-90" rx="72.4894" ry="18"/>
<text text-anchor="middle" x="273.212" y="-85.8" font-family="Times,serif" font-size="14.00">ClinicalSummary</text>
</g>
<!-- RecentView -->
<g id="node5" class="node"><title>RecentView</title>
<ellipse fill="none" stroke="black" cx="214.212" cy="-18" rx="53.0765" ry="18"/>
<text text-anchor="middle" x="214.212" y="-13.8" font-family="Times,serif" font-size="14.00">RecentView</text>
</g>
<!-- ClinicalSummary&#45;&gt;RecentView -->
<g id="edge1" class="edge"><title>ClinicalSummary&#45;&gt;RecentView</title>
<path fill="none" stroke="#1c0593" d="M253.693,-65.8427C247.744,-58.7842 241.181,-50.9973 235.142,-43.8327"/>
<ellipse fill="none" stroke="#1c0593" cx="256.352" cy="-68.9964" rx="4.00002" ry="4.00002"/>
<polygon fill="#1c0593" stroke="#1c0593" points="234.807,-43.4353 231.803,-32.8889 231.585,-39.6122 228.362,-35.789 228.362,-35.789 228.362,-35.789 231.585,-39.6122 224.922,-38.6891 234.807,-43.4353 234.807,-43.4353"/>
</g>
<!-- EhrSystem -->
<g id="node3" class="node"><title>EhrSystem</title>
<ellipse fill="none" stroke="black" cx="273.212" cy="-252.5" rx="48.8359" ry="18"/>
<text text-anchor="middle" x="273.212" y="-248.3" font-family="Times,serif" font-size="14.00">EhrSystem</text>
</g>
<!-- EhrSystem&#45;&gt;ClinicalSummary -->
<g id="edge3" class="edge"><title>EhrSystem&#45;&gt;ClinicalSummary</title>
<path fill="none" stroke="#cfaa22" d="M266.786,-226.576C261.984,-204.788 256.792,-172.299 260.212,-144 261.251,-135.403 263.205,-126.188 265.289,-117.893"/>
<ellipse fill="none" stroke="#cfaa22" cx="267.687" cy="-230.474" rx="4.00001" ry="4.00001"/>
<polygon fill="#cfaa22" stroke="#cfaa22" points="265.353,-117.653 272.285,-109.156 266.645,-112.823 267.938,-107.993 267.938,-107.993 267.938,-107.993 266.645,-112.823 263.591,-106.829 265.353,-117.653 265.353,-117.653"/>
</g>
<!-- Patient -->
<g id="node4" class="node"><title>Patient</title>
<ellipse fill="none" stroke="black" cx="304.212" cy="-162" rx="34.8371" ry="18"/>
<text text-anchor="middle" x="304.212" y="-157.8" font-family="Times,serif" font-size="14.00">Patient</text>
</g>
<!-- EhrSystem&#45;&gt;Patient -->
<g id="edge2" class="edge"><title>EhrSystem&#45;&gt;Patient</title>
<path fill="none" stroke="#c377c7" d="M281.933,-226.603C285.963,-215.098 290.754,-201.42 294.859,-189.701"/>
<ellipse fill="none" stroke="#c377c7" cx="280.511" cy="-230.661" rx="4.00001" ry="4.00001"/>
<polygon fill="#c377c7" stroke="#c377c7" points="294.947,-189.449 302.5,-181.499 296.6,-184.73 298.253,-180.011 298.253,-180.011 298.253,-180.011 296.6,-184.73 294.006,-178.524 294.947,-189.449 294.947,-189.449"/>
</g>
<!-- Patient&#45;&gt;ClinicalSummary -->
<g id="edge4" class="edge"><title>Patient&#45;&gt;ClinicalSummary</title>
<path fill="none" stroke="#f2a277" d="M293.383,-136.548C290.673,-130.428 287.753,-123.835 284.999,-117.616"/>
<ellipse fill="none" stroke="#f2a277" cx="295.088" cy="-140.398" rx="4.00002" ry="4.00002"/>
<polygon fill="#f2a277" stroke="#f2a277" points="284.911,-117.419 284.977,-106.453 282.887,-112.847 280.862,-108.275 280.862,-108.275 280.862,-108.275 282.887,-112.847 276.748,-110.097 284.911,-117.419 284.911,-117.419"/>
</g>
<!-- User -->
<g id="node6" class="node"><title>User</title>
<ellipse fill="none" stroke="black" cx="156.212" cy="-90" rx="27" ry="18"/>
<text text-anchor="middle" x="156.212" y="-85.8" font-family="Times,serif" font-size="14.00">User</text>
</g>
<!-- User&#45;&gt;RecentView -->
<g id="edge5" class="edge"><title>User&#45;&gt;RecentView</title>
<path fill="none" stroke="#1e9d29" d="M174.115,-67.3922C180.34,-59.8791 187.369,-51.3964 193.783,-43.6555"/>
<ellipse fill="none" stroke="#1e9d29" cx="171.349" cy="-70.7309" rx="4.00002" ry="4.00002"/>
<polygon fill="#1e9d29" stroke="#1e9d29" points="194.054,-43.3281 203.899,-38.4989 197.244,-39.478 200.434,-35.6278 200.434,-35.6278 200.434,-35.6278 197.244,-39.478 196.969,-32.7568 194.054,-43.3281 194.054,-43.3281"/>
</g>
</g>
</svg>
