<?xml version="1.0" encoding="UTF-8" standalone="no"?>
<!DOCTYPE svg PUBLIC "-//W3C//DTD SVG 1.1//EN"
 "http://www.w3.org/Graphics/SVG/1.1/DTD/svg11.dtd">
<!-- Generated by graphviz version 2.38.0 (20140413.2041)
 -->
<!-- Title: models_diagram Pages: 1 -->
<svg width="994pt" height="386pt"
 viewBox="0.00 0.00 994.32 386.00" xmlns="http://www.w3.org/2000/svg" xmlns:xlink="http://www.w3.org/1999/xlink">
<g id="graph0" class="graph" transform="scale(1 1) rotate(0) translate(4 382)">
<title>models_diagram</title>
<polygon fill="none" stroke="none" points="-4,4 -4,-382 990.323,-382 990.323,4 -4,4"/>
<!-- _diagram_info -->
<g id="node1" class="node"><title>_diagram_info</title>
<text text-anchor="start" x="8" y="-293.6" font-family="Times,serif" font-size="13.00">Models diagram</text>
<text text-anchor="start" x="8" y="-280.6" font-family="Times,serif" font-size="13.00">Date: Sep 17 2016 &#45; 18:08</text>
<text text-anchor="start" x="8" y="-267.6" font-family="Times,serif" font-size="13.00">Migration version: 20160917220138</text>
<text text-anchor="start" x="8" y="-254.6" font-family="Times,serif" font-size="13.00">Generated by RailRoady 1.4.2</text>
<text text-anchor="start" x="8" y="-241.6" font-family="Times,serif" font-size="13.00">http://railroady.prestonlee.com</text>
</g>
<!-- ClinicalSummary -->
<g id="node2" class="node"><title>ClinicalSummary</title>
<path fill="none" stroke="black" d="M192.825,-7.5C192.825,-7.5 416.55,-7.5 416.55,-7.5 422.55,-7.5 428.55,-13.5 428.55,-19.5 428.55,-19.5 428.55,-109.5 428.55,-109.5 428.55,-115.5 422.55,-121.5 416.55,-121.5 416.55,-121.5 192.825,-121.5 192.825,-121.5 186.825,-121.5 180.825,-115.5 180.825,-109.5 180.825,-109.5 180.825,-19.5 180.825,-19.5 180.825,-13.5 186.825,-7.5 192.825,-7.5"/>
<text text-anchor="middle" x="304.688" y="-106.3" font-family="Times,serif" font-size="14.00">ClinicalSummary</text>
<polyline fill="none" stroke="black" points="180.825,-99.5 428.55,-99.5 "/>
<text text-anchor="start" x="188.825" y="-84.3" font-family="Times,serif" font-size="14.00">id :integer</text>
<text text-anchor="start" x="188.825" y="-70.3" font-family="Times,serif" font-size="14.00">document_id :character varying</text>
<text text-anchor="start" x="188.825" y="-56.3" font-family="Times,serif" font-size="14.00">patient_id :integer</text>
<text text-anchor="start" x="188.825" y="-42.3" font-family="Times,serif" font-size="14.00">ehr_system_id :integer</text>
<text text-anchor="start" x="188.825" y="-28.3" font-family="Times,serif" font-size="14.00">created_at :timestamp without time zone</text>
<text text-anchor="start" x="188.825" y="-14.3" font-family="Times,serif" font-size="14.00">updated_at :timestamp without time zone</text>
</g>
<!-- EhrSystem -->
<g id="node3" class="node"><title>EhrSystem</title>
<path fill="none" stroke="black" d="M413.825,-221.5C413.825,-221.5 637.55,-221.5 637.55,-221.5 643.55,-221.5 649.55,-227.5 649.55,-233.5 649.55,-233.5 649.55,-309.5 649.55,-309.5 649.55,-315.5 643.55,-321.5 637.55,-321.5 637.55,-321.5 413.825,-321.5 413.825,-321.5 407.825,-321.5 401.825,-315.5 401.825,-309.5 401.825,-309.5 401.825,-233.5 401.825,-233.5 401.825,-227.5 407.825,-221.5 413.825,-221.5"/>
<text text-anchor="middle" x="525.688" y="-306.3" font-family="Times,serif" font-size="14.00">EhrSystem</text>
<polyline fill="none" stroke="black" points="401.825,-299.5 649.55,-299.5 "/>
<text text-anchor="start" x="409.825" y="-284.3" font-family="Times,serif" font-size="14.00">id :integer</text>
<text text-anchor="start" x="409.825" y="-270.3" font-family="Times,serif" font-size="14.00">redox_id :character varying</text>
<text text-anchor="start" x="409.825" y="-256.3" font-family="Times,serif" font-size="14.00">name :character varying</text>
<text text-anchor="start" x="409.825" y="-242.3" font-family="Times,serif" font-size="14.00">created_at :timestamp without time zone</text>
<text text-anchor="start" x="409.825" y="-228.3" font-family="Times,serif" font-size="14.00">updated_at :timestamp without time zone</text>
</g>
<!-- EhrSystem&#45;&gt;ClinicalSummary -->
<g id="edge2" class="edge"><title>EhrSystem&#45;&gt;ClinicalSummary</title>
<path fill="none" stroke="#cc5c38" d="M466.592,-215.683C437.744,-188.923 402.88,-156.583 372.904,-128.778"/>
<ellipse fill="none" stroke="#cc5c38" cx="469.82" cy="-218.677" rx="4.00002" ry="4.00002"/>
<polygon fill="#cc5c38" stroke="#cc5c38" points="372.727,-128.613 368.456,-118.514 369.061,-125.213 365.396,-121.813 365.396,-121.813 365.396,-121.813 369.061,-125.213 362.335,-125.112 372.727,-128.613 372.727,-128.613"/>
</g>
<!-- RecentView -->
<g id="node5" class="node"><title>RecentView</title>
<path fill="none" stroke="black" d="M458.825,-0.5C458.825,-0.5 682.55,-0.5 682.55,-0.5 688.55,-0.5 694.55,-6.5 694.55,-12.5 694.55,-12.5 694.55,-116.5 694.55,-116.5 694.55,-122.5 688.55,-128.5 682.55,-128.5 682.55,-128.5 458.825,-128.5 458.825,-128.5 452.825,-128.5 446.825,-122.5 446.825,-116.5 446.825,-116.5 446.825,-12.5 446.825,-12.5 446.825,-6.5 452.825,-0.5 458.825,-0.5"/>
<text text-anchor="middle" x="570.688" y="-113.3" font-family="Times,serif" font-size="14.00">RecentView</text>
<polyline fill="none" stroke="black" points="446.825,-106.5 694.55,-106.5 "/>
<text text-anchor="start" x="454.825" y="-91.3" font-family="Times,serif" font-size="14.00">ehr_system_id :integer</text>
<text text-anchor="start" x="454.825" y="-77.3" font-family="Times,serif" font-size="14.00">user_id :integer</text>
<text text-anchor="start" x="454.825" y="-63.3" font-family="Times,serif" font-size="14.00">patient_id :integer</text>
<text text-anchor="start" x="454.825" y="-49.3" font-family="Times,serif" font-size="14.00">id :integer</text>
<text text-anchor="start" x="454.825" y="-35.3" font-family="Times,serif" font-size="14.00">is_saved :boolean</text>
<text text-anchor="start" x="454.825" y="-21.3" font-family="Times,serif" font-size="14.00">created_at :timestamp without time zone</text>
<text text-anchor="start" x="454.825" y="-7.3" font-family="Times,serif" font-size="14.00">updated_at :timestamp without time zone</text>
</g>
<!-- EhrSystem&#45;&gt;RecentView -->
<g id="edge1" class="edge"><title>EhrSystem&#45;&gt;RecentView</title>
<path fill="none" stroke="#b56728" d="M538.225,-213.387C543.311,-190.214 549.249,-163.164 554.646,-138.58"/>
<ellipse fill="none" stroke="#b56728" cx="537.324" cy="-217.49" rx="4.00001" ry="4.00001"/>
<polygon fill="#b56728" stroke="#b56728" points="554.698,-138.343 561.237,-129.541 555.77,-133.459 556.842,-128.576 556.842,-128.576 556.842,-128.576 555.77,-133.459 552.447,-127.611 554.698,-138.343 554.698,-138.343"/>
</g>
<!-- Patient -->
<g id="node4" class="node"><title>Patient</title>
<path fill="none" stroke="black" d="M237.16,-242.5C237.16,-242.5 372.216,-242.5 372.216,-242.5 378.216,-242.5 384.216,-248.5 384.216,-254.5 384.216,-254.5 384.216,-288.5 384.216,-288.5 384.216,-294.5 378.216,-300.5 372.216,-300.5 372.216,-300.5 237.16,-300.5 237.16,-300.5 231.16,-300.5 225.16,-294.5 225.16,-288.5 225.16,-288.5 225.16,-254.5 225.16,-254.5 225.16,-248.5 231.16,-242.5 237.16,-242.5"/>
<text text-anchor="middle" x="304.688" y="-285.3" font-family="Times,serif" font-size="14.00">Patient</text>
<polyline fill="none" stroke="black" points="225.16,-278.5 384.216,-278.5 "/>
<text text-anchor="start" x="233.16" y="-263.3" font-family="Times,serif" font-size="14.00">id :integer</text>
<text text-anchor="start" x="233.16" y="-249.3" font-family="Times,serif" font-size="14.00">nist_id :character varying</text>
</g>
<!-- Patient&#45;&gt;ClinicalSummary -->
<g id="edge4" class="edge"><title>Patient&#45;&gt;ClinicalSummary</title>
<path fill="none" stroke="#304d77" d="M304.688,-234.038C304.688,-205.82 304.688,-165.974 304.688,-132.11"/>
<ellipse fill="none" stroke="#304d77" cx="304.688" cy="-238.425" rx="4" ry="4"/>
<polygon fill="#304d77" stroke="#304d77" points="304.688,-131.812 309.188,-121.812 304.688,-126.812 304.688,-121.812 304.688,-121.812 304.688,-121.812 304.688,-126.812 300.188,-121.812 304.688,-131.812 304.688,-131.812"/>
</g>
<!-- Patient&#45;&gt;RecentView -->
<g id="edge3" class="edge"><title>Patient&#45;&gt;RecentView</title>
<path fill="none" stroke="#bed2fa" d="M328.793,-235.424C345.091,-213.411 368.069,-185.429 392.688,-165 406.595,-153.459 422.034,-142.565 437.84,-132.518"/>
<ellipse fill="none" stroke="#bed2fa" cx="326.314" cy="-238.818" rx="4.00002" ry="4.00002"/>
<polygon fill="#bed2fa" stroke="#bed2fa" points="438.166,-132.315 449.032,-130.843 442.409,-129.67 446.652,-127.025 446.652,-127.025 446.652,-127.025 442.409,-129.67 444.271,-123.206 438.166,-132.315 438.166,-132.315"/>
</g>
<!-- User -->
<g id="node6" class="node"><title>User</title>
<path fill="none" stroke="black" d="M679.053,-165.5C679.053,-165.5 974.323,-165.5 974.323,-165.5 980.323,-165.5 986.323,-171.5 986.323,-177.5 986.323,-177.5 986.323,-365.5 986.323,-365.5 986.323,-371.5 980.323,-377.5 974.323,-377.5 974.323,-377.5 679.053,-377.5 679.053,-377.5 673.053,-377.5 667.053,-371.5 667.053,-365.5 667.053,-365.5 667.053,-177.5 667.053,-177.5 667.053,-171.5 673.053,-165.5 679.053,-165.5"/>
<text text-anchor="middle" x="826.688" y="-362.3" font-family="Times,serif" font-size="14.00">User</text>
<polyline fill="none" stroke="black" points="667.053,-355.5 986.323,-355.5 "/>
<text text-anchor="start" x="675.053" y="-340.3" font-family="Times,serif" font-size="14.00">updated_at :timestamp without time zone</text>
<text text-anchor="start" x="675.053" y="-326.3" font-family="Times,serif" font-size="14.00">email :character varying</text>
<text text-anchor="start" x="675.053" y="-312.3" font-family="Times,serif" font-size="14.00">encrypted_password :character varying</text>
<text text-anchor="start" x="675.053" y="-298.3" font-family="Times,serif" font-size="14.00">reset_password_token :character varying</text>
<text text-anchor="start" x="675.053" y="-284.3" font-family="Times,serif" font-size="14.00">reset_password_sent_at :timestamp without time zone</text>
<text text-anchor="start" x="675.053" y="-270.3" font-family="Times,serif" font-size="14.00">remember_created_at :timestamp without time zone</text>
<text text-anchor="start" x="675.053" y="-256.3" font-family="Times,serif" font-size="14.00">sign_in_count :integer</text>
<text text-anchor="start" x="675.053" y="-242.3" font-family="Times,serif" font-size="14.00">current_sign_in_at :timestamp without time zone</text>
<text text-anchor="start" x="675.053" y="-228.3" font-family="Times,serif" font-size="14.00">last_sign_in_at :timestamp without time zone</text>
<text text-anchor="start" x="675.053" y="-214.3" font-family="Times,serif" font-size="14.00">current_sign_in_ip :character varying</text>
<text text-anchor="start" x="675.053" y="-200.3" font-family="Times,serif" font-size="14.00">last_sign_in_ip :character varying</text>
<text text-anchor="start" x="675.053" y="-186.3" font-family="Times,serif" font-size="14.00">created_at :timestamp without time zone</text>
<text text-anchor="start" x="675.053" y="-172.3" font-family="Times,serif" font-size="14.00">id :integer</text>
</g>
<!-- User&#45;&gt;RecentView -->
<g id="edge5" class="edge"><title>User&#45;&gt;RecentView</title>
<path fill="none" stroke="#3e6b93" d="M688.742,-160.036C678.195,-151.59 667.738,-143.216 657.661,-135.147"/>
<ellipse fill="none" stroke="#3e6b93" cx="692.191" cy="-162.797" rx="4.00002" ry="4.00002"/>
<polygon fill="#3e6b93" stroke="#3e6b93" points="657.472,-134.995 652.479,-125.232 653.569,-131.87 649.666,-128.745 649.666,-128.745 649.666,-128.745 653.569,-131.87 646.853,-132.257 657.472,-134.995 657.472,-134.995"/>
</g>
</g>
</svg>
