<?xml version="1.0" encoding="UTF-8" standalone="no"?>
<!DOCTYPE svg PUBLIC "-//W3C//DTD SVG 1.1//EN"
 "http://www.w3.org/Graphics/SVG/1.1/DTD/svg11.dtd">
<!-- Generated by graphviz version 2.38.0 (20140413.2041)
 -->
<!-- Title: models_diagram Pages: 1 -->
<svg width="491pt" height="153pt"
 viewBox="0.00 0.00 490.69 153.00" xmlns="http://www.w3.org/2000/svg" xmlns:xlink="http://www.w3.org/1999/xlink">
<g id="graph0" class="graph" transform="scale(1 1) rotate(0) translate(4 149)">
<title>models_diagram</title>
<polygon fill="none" stroke="none" points="-4,4 -4,-149 486.688,-149 486.688,4 -4,4"/>
<!-- _diagram_info -->
<g id="node1" class="node"><title>_diagram_info</title>
<text text-anchor="start" x="8" y="-130.6" font-family="Times,serif" font-size="13.00">Models diagram</text>
<text text-anchor="start" x="8" y="-117.6" font-family="Times,serif" font-size="13.00">Date: Sep 17 2016 &#45; 18:08</text>
<text text-anchor="start" x="8" y="-104.6" font-family="Times,serif" font-size="13.00">Migration version: 20160917220138</text>
<text text-anchor="start" x="8" y="-91.6" font-family="Times,serif" font-size="13.00">Generated by RailRoady 1.4.2</text>
<text text-anchor="start" x="8" y="-78.6" font-family="Times,serif" font-size="13.00">http://railroady.prestonlee.com</text>
</g>
<!-- ClinicalSummary -->
<g id="node2" class="node"><title>ClinicalSummary</title>
<ellipse fill="none" stroke="black" cx="259.688" cy="-18" rx="72.4894" ry="18"/>
<text text-anchor="middle" x="259.688" y="-13.8" font-family="Times,serif" font-size="14.00">ClinicalSummary</text>
</g>
<!-- EhrSystem -->
<g id="node3" class="node"><title>EhrSystem</title>
<ellipse fill="none" stroke="black" cx="361.688" cy="-108.5" rx="48.8359" ry="18"/>
<text text-anchor="middle" x="361.688" y="-104.3" font-family="Times,serif" font-size="14.00">EhrSystem</text>
</g>
<!-- EhrSystem&#45;&gt;ClinicalSummary -->
<g id="edge2" class="edge"><title>EhrSystem&#45;&gt;ClinicalSummary</title>
<path fill="none" stroke="#d8945b" d="M337.151,-86.2105C321.898,-72.9764 302.277,-55.9525 286.599,-42.3496"/>
<ellipse fill="none" stroke="#d8945b" cx="340.431" cy="-89.0565" rx="4.00002" ry="4.00002"/>
<polygon fill="#d8945b" stroke="#d8945b" points="286.357,-42.1397 281.753,-32.1872 282.581,-38.8629 278.804,-35.5861 278.804,-35.5861 278.804,-35.5861 282.581,-38.8629 275.855,-38.9851 286.357,-42.1397 286.357,-42.1397"/>
</g>
<!-- RecentView -->
<g id="node5" class="node"><title>RecentView</title>
<ellipse fill="none" stroke="black" cx="403.688" cy="-18" rx="53.0765" ry="18"/>
<text text-anchor="middle" x="403.688" y="-13.8" font-family="Times,serif" font-size="14.00">RecentView</text>
</g>
<!-- EhrSystem&#45;&gt;RecentView -->
<g id="edge1" class="edge"><title>EhrSystem&#45;&gt;RecentView</title>
<path fill="none" stroke="#e31ae5" d="M373.308,-83.0153C378.904,-71.2237 385.618,-57.0753 391.31,-45.0817"/>
<ellipse fill="none" stroke="#e31ae5" cx="371.501" cy="-86.8226" rx="4.00002" ry="4.00002"/>
<polygon fill="#e31ae5" stroke="#e31ae5" points="391.327,-45.0456 399.68,-37.9407 393.471,-40.5284 395.615,-36.0113 395.615,-36.0113 395.615,-36.0113 393.471,-40.5284 391.549,-34.0819 391.327,-45.0456 391.327,-45.0456"/>
</g>
<!-- Patient -->
<g id="node4" class="node"><title>Patient</title>
<ellipse fill="none" stroke="black" cx="259.688" cy="-108.5" rx="34.8371" ry="18"/>
<text text-anchor="middle" x="259.688" y="-104.3" font-family="Times,serif" font-size="14.00">Patient</text>
</g>
<!-- Patient&#45;&gt;ClinicalSummary -->
<g id="edge4" class="edge"><title>Patient&#45;&gt;ClinicalSummary</title>
<path fill="none" stroke="#78b21c" d="M259.688,-82.189C259.688,-70.9711 259.688,-57.7517 259.688,-46.3113"/>
<ellipse fill="none" stroke="#78b21c" cx="259.688" cy="-86.4363" rx="4" ry="4"/>
<polygon fill="#78b21c" stroke="#78b21c" points="259.688,-46.0113 264.188,-36.0113 259.688,-41.0113 259.688,-36.0113 259.688,-36.0113 259.688,-36.0113 259.688,-41.0113 255.188,-36.0113 259.688,-46.0113 259.688,-46.0113"/>
</g>
<!-- Patient&#45;&gt;RecentView -->
<g id="edge3" class="edge"><title>Patient&#45;&gt;RecentView</title>
<path fill="none" stroke="#ea4054" d="M282.92,-87.3837C289.449,-82.115 296.683,-76.6209 303.688,-72 322.91,-59.3199 345.491,-47.1417 364.327,-37.6635"/>
<ellipse fill="none" stroke="#ea4054" cx="279.749" cy="-89.9941" rx="4.00002" ry="4.00002"/>
<polygon fill="#ea4054" stroke="#ea4054" points="364.561,-37.5472 375.519,-37.1321 369.04,-35.3242 373.519,-33.1012 373.519,-33.1012 373.519,-33.1012 369.04,-35.3242 371.518,-29.0704 364.561,-37.5472 364.561,-37.5472"/>
</g>
<!-- User -->
<g id="node6" class="node"><title>User</title>
<ellipse fill="none" stroke="black" cx="455.688" cy="-108.5" rx="27" ry="18"/>
<text text-anchor="middle" x="455.688" y="-104.3" font-family="Times,serif" font-size="14.00">User</text>
</g>
<!-- User&#45;&gt;RecentView -->
<g id="edge5" class="edge"><title>User&#45;&gt;RecentView</title>
<path fill="none" stroke="#839497" d="M441.986,-84.1813C434.856,-72.0457 426.122,-57.181 418.796,-44.713"/>
<ellipse fill="none" stroke="#839497" cx="444.124" cy="-87.819" rx="4.00002" ry="4.00002"/>
<polygon fill="#839497" stroke="#839497" points="418.584,-44.3526 417.398,-33.451 416.051,-40.0416 413.518,-35.7307 413.518,-35.7307 413.518,-35.7307 416.051,-40.0416 409.638,-38.0104 418.584,-44.3526 418.584,-44.3526"/>
</g>
</g>
</svg>
