<?xml version="1.0" encoding="UTF-8" standalone="no"?>
<!DOCTYPE svg PUBLIC "-//W3C//DTD SVG 1.1//EN"
 "http://www.w3.org/Graphics/SVG/1.1/DTD/svg11.dtd">
<!-- Generated by graphviz version 2.38.0 (20140413.2041)
 -->
<!-- Title: models_diagram Pages: 1 -->
<svg width="1017pt" height="386pt"
 viewBox="0.00 0.00 1017.32 386.00" xmlns="http://www.w3.org/2000/svg" xmlns:xlink="http://www.w3.org/1999/xlink">
<g id="graph0" class="graph" transform="scale(1 1) rotate(0) translate(4 382)">
<title>models_diagram</title>
<polygon fill="none" stroke="none" points="-4,4 -4,-382 1013.32,-382 1013.32,4 -4,4"/>
<!-- _diagram_info -->
<g id="node1" class="node"><title>_diagram_info</title>
<text text-anchor="start" x="8" y="-293.6" font-family="Times,serif" font-size="13.00">Models diagram</text>
<text text-anchor="start" x="8" y="-280.6" font-family="Times,serif" font-size="13.00">Date: Sep 15 2016 &#45; 16:46</text>
<text text-anchor="start" x="8" y="-267.6" font-family="Times,serif" font-size="13.00">Migration version: 20160915171256</text>
<text text-anchor="start" x="8" y="-254.6" font-family="Times,serif" font-size="13.00">Generated by RailRoady 1.4.2</text>
<text text-anchor="start" x="8" y="-241.6" font-family="Times,serif" font-size="13.00">http://railroady.prestonlee.com</text>
</g>
<!-- EhrSystem -->
<g id="node2" class="node"><title>EhrSystem</title>
<path fill="none" stroke="black" d="M237.825,-221.5C237.825,-221.5 461.55,-221.5 461.55,-221.5 467.55,-221.5 473.55,-227.5 473.55,-233.5 473.55,-233.5 473.55,-309.5 473.55,-309.5 473.55,-315.5 467.55,-321.5 461.55,-321.5 461.55,-321.5 237.825,-321.5 237.825,-321.5 231.825,-321.5 225.825,-315.5 225.825,-309.5 225.825,-309.5 225.825,-233.5 225.825,-233.5 225.825,-227.5 231.825,-221.5 237.825,-221.5"/>
<text text-anchor="middle" x="349.688" y="-306.3" font-family="Times,serif" font-size="14.00">EhrSystem</text>
<polyline fill="none" stroke="black" points="225.825,-299.5 473.55,-299.5 "/>
<text text-anchor="start" x="233.825" y="-284.3" font-family="Times,serif" font-size="14.00">id :integer</text>
<text text-anchor="start" x="233.825" y="-270.3" font-family="Times,serif" font-size="14.00">redox_id :character varying</text>
<text text-anchor="start" x="233.825" y="-256.3" font-family="Times,serif" font-size="14.00">name :character varying</text>
<text text-anchor="start" x="233.825" y="-242.3" font-family="Times,serif" font-size="14.00">created_at :timestamp without time zone</text>
<text text-anchor="start" x="233.825" y="-228.3" font-family="Times,serif" font-size="14.00">updated_at :timestamp without time zone</text>
</g>
<!-- RecentView -->
<g id="node4" class="node"><title>RecentView</title>
<path fill="none" stroke="black" d="M469.825,-0.5C469.825,-0.5 693.55,-0.5 693.55,-0.5 699.55,-0.5 705.55,-6.5 705.55,-12.5 705.55,-12.5 705.55,-116.5 705.55,-116.5 705.55,-122.5 699.55,-128.5 693.55,-128.5 693.55,-128.5 469.825,-128.5 469.825,-128.5 463.825,-128.5 457.825,-122.5 457.825,-116.5 457.825,-116.5 457.825,-12.5 457.825,-12.5 457.825,-6.5 463.825,-0.5 469.825,-0.5"/>
<text text-anchor="middle" x="581.688" y="-113.3" font-family="Times,serif" font-size="14.00">RecentView</text>
<polyline fill="none" stroke="black" points="457.825,-106.5 705.55,-106.5 "/>
<text text-anchor="start" x="465.825" y="-91.3" font-family="Times,serif" font-size="14.00">ehr_system_id :integer</text>
<text text-anchor="start" x="465.825" y="-77.3" font-family="Times,serif" font-size="14.00">user_id :integer</text>
<text text-anchor="start" x="465.825" y="-63.3" font-family="Times,serif" font-size="14.00">patient_id :integer</text>
<text text-anchor="start" x="465.825" y="-49.3" font-family="Times,serif" font-size="14.00">id :integer</text>
<text text-anchor="start" x="465.825" y="-35.3" font-family="Times,serif" font-size="14.00">is_saved :boolean</text>
<text text-anchor="start" x="465.825" y="-21.3" font-family="Times,serif" font-size="14.00">created_at :timestamp without time zone</text>
<text text-anchor="start" x="465.825" y="-7.3" font-family="Times,serif" font-size="14.00">updated_at :timestamp without time zone</text>
</g>
<!-- EhrSystem&#45;&gt;RecentView -->
<g id="edge1" class="edge"><title>EhrSystem&#45;&gt;RecentView</title>
<path fill="none" stroke="#72b4c9" d="M411.257,-216.096C439.327,-191.293 472.895,-161.631 502.789,-135.216"/>
<ellipse fill="none" stroke="#72b4c9" cx="408.255" cy="-218.749" rx="4.00002" ry="4.00002"/>
<polygon fill="#72b4c9" stroke="#72b4c9" points="502.811,-135.197 513.284,-131.948 506.558,-131.887 510.304,-128.576 510.304,-128.576 510.304,-128.576 506.558,-131.887 507.325,-125.204 502.811,-135.197 502.811,-135.197"/>
</g>
<!-- Patient -->
<g id="node3" class="node"><title>Patient</title>
<path fill="none" stroke="black" d="M503.667,-214.5C503.667,-214.5 659.709,-214.5 659.709,-214.5 665.709,-214.5 671.709,-220.5 671.709,-226.5 671.709,-226.5 671.709,-316.5 671.709,-316.5 671.709,-322.5 665.709,-328.5 659.709,-328.5 659.709,-328.5 503.667,-328.5 503.667,-328.5 497.667,-328.5 491.667,-322.5 491.667,-316.5 491.667,-316.5 491.667,-226.5 491.667,-226.5 491.667,-220.5 497.667,-214.5 503.667,-214.5"/>
<text text-anchor="middle" x="581.688" y="-313.3" font-family="Times,serif" font-size="14.00">Patient</text>
<polyline fill="none" stroke="black" points="491.667,-306.5 671.709,-306.5 "/>
<text text-anchor="start" x="499.667" y="-291.3" font-family="Times,serif" font-size="14.00">id :integer</text>
<text text-anchor="start" x="499.667" y="-277.3" font-family="Times,serif" font-size="14.00">nist_id :character varying</text>
<text text-anchor="start" x="499.667" y="-263.3" font-family="Times,serif" font-size="14.00">first_name :character varying</text>
<text text-anchor="start" x="499.667" y="-249.3" font-family="Times,serif" font-size="14.00">last_name :character varying</text>
<text text-anchor="start" x="499.667" y="-235.3" font-family="Times,serif" font-size="14.00">ssn :character varying</text>
<text text-anchor="start" x="499.667" y="-221.3" font-family="Times,serif" font-size="14.00">dob :character varying</text>
</g>
<!-- Patient&#45;&gt;RecentView -->
<g id="edge2" class="edge"><title>Patient&#45;&gt;RecentView</title>
<path fill="none" stroke="#2e76a5" d="M581.688,-206.239C581.688,-184.888 581.688,-160.954 581.688,-138.963"/>
<ellipse fill="none" stroke="#2e76a5" cx="581.688" cy="-210.483" rx="4" ry="4"/>
<polygon fill="#2e76a5" stroke="#2e76a5" points="581.688,-138.679 586.188,-128.679 581.688,-133.679 581.688,-128.679 581.688,-128.679 581.688,-128.679 581.688,-133.679 577.188,-128.68 581.688,-138.679 581.688,-138.679"/>
</g>
<!-- User -->
<g id="node5" class="node"><title>User</title>
<path fill="none" stroke="black" d="M702.053,-165.5C702.053,-165.5 997.323,-165.5 997.323,-165.5 1003.32,-165.5 1009.32,-171.5 1009.32,-177.5 1009.32,-177.5 1009.32,-365.5 1009.32,-365.5 1009.32,-371.5 1003.32,-377.5 997.323,-377.5 997.323,-377.5 702.053,-377.5 702.053,-377.5 696.053,-377.5 690.053,-371.5 690.053,-365.5 690.053,-365.5 690.053,-177.5 690.053,-177.5 690.053,-171.5 696.053,-165.5 702.053,-165.5"/>
<text text-anchor="middle" x="849.688" y="-362.3" font-family="Times,serif" font-size="14.00">User</text>
<polyline fill="none" stroke="black" points="690.053,-355.5 1009.32,-355.5 "/>
<text text-anchor="start" x="698.053" y="-340.3" font-family="Times,serif" font-size="14.00">updated_at :timestamp without time zone</text>
<text text-anchor="start" x="698.053" y="-326.3" font-family="Times,serif" font-size="14.00">email :character varying</text>
<text text-anchor="start" x="698.053" y="-312.3" font-family="Times,serif" font-size="14.00">encrypted_password :character varying</text>
<text text-anchor="start" x="698.053" y="-298.3" font-family="Times,serif" font-size="14.00">reset_password_token :character varying</text>
<text text-anchor="start" x="698.053" y="-284.3" font-family="Times,serif" font-size="14.00">reset_password_sent_at :timestamp without time zone</text>
<text text-anchor="start" x="698.053" y="-270.3" font-family="Times,serif" font-size="14.00">remember_created_at :timestamp without time zone</text>
<text text-anchor="start" x="698.053" y="-256.3" font-family="Times,serif" font-size="14.00">sign_in_count :integer</text>
<text text-anchor="start" x="698.053" y="-242.3" font-family="Times,serif" font-size="14.00">current_sign_in_at :timestamp without time zone</text>
<text text-anchor="start" x="698.053" y="-228.3" font-family="Times,serif" font-size="14.00">last_sign_in_at :timestamp without time zone</text>
<text text-anchor="start" x="698.053" y="-214.3" font-family="Times,serif" font-size="14.00">current_sign_in_ip :character varying</text>
<text text-anchor="start" x="698.053" y="-200.3" font-family="Times,serif" font-size="14.00">last_sign_in_ip :character varying</text>
<text text-anchor="start" x="698.053" y="-186.3" font-family="Times,serif" font-size="14.00">created_at :timestamp without time zone</text>
<text text-anchor="start" x="698.053" y="-172.3" font-family="Times,serif" font-size="14.00">id :integer</text>
</g>
<!-- User&#45;&gt;RecentView -->
<g id="edge3" class="edge"><title>User&#45;&gt;RecentView</title>
<path fill="none" stroke="#43004e" d="M705.658,-160.328C694.403,-151.719 683.244,-143.183 672.499,-134.964"/>
<ellipse fill="none" stroke="#43004e" cx="708.978" cy="-162.867" rx="4.00002" ry="4.00002"/>
<polygon fill="#43004e" stroke="#43004e" points="672.311,-134.82 667.102,-125.17 668.34,-131.782 664.368,-128.745 664.368,-128.745 664.368,-128.745 668.34,-131.782 661.634,-132.319 672.311,-134.82 672.311,-134.82"/>
</g>
</g>
</svg>
