<?xml version="1.0" encoding="UTF-8" standalone="no"?>
<!DOCTYPE svg PUBLIC "-//W3C//DTD SVG 1.1//EN"
 "http://www.w3.org/Graphics/SVG/1.1/DTD/svg11.dtd">
<!-- Generated by graphviz version 2.38.0 (20140413.2041)
 -->
<!-- Title: models_diagram Pages: 1 -->
<svg width="995pt" height="386pt"
 viewBox="0.00 0.00 995.32 386.00" xmlns="http://www.w3.org/2000/svg" xmlns:xlink="http://www.w3.org/1999/xlink">
<g id="graph0" class="graph" transform="scale(1 1) rotate(0) translate(4 382)">
<title>models_diagram</title>
<polygon fill="none" stroke="none" points="-4,4 -4,-382 991.323,-382 991.323,4 -4,4"/>
<!-- _diagram_info -->
<g id="node1" class="node"><title>_diagram_info</title>
<text text-anchor="start" x="8" y="-293.6" font-family="Times,serif" font-size="13.00">Models diagram</text>
<text text-anchor="start" x="8" y="-280.6" font-family="Times,serif" font-size="13.00">Date: Sep 17 2016 &#45; 16:43</text>
<text text-anchor="start" x="8" y="-267.6" font-family="Times,serif" font-size="13.00">Migration version: 20160917203934</text>
<text text-anchor="start" x="8" y="-254.6" font-family="Times,serif" font-size="13.00">Generated by RailRoady 1.4.2</text>
<text text-anchor="start" x="8" y="-241.6" font-family="Times,serif" font-size="13.00">http://railroady.prestonlee.com</text>
</g>
<!-- EhrSystem -->
<g id="node2" class="node"><title>EhrSystem</title>
<path fill="none" stroke="black" d="M237.825,-221.5C237.825,-221.5 461.55,-221.5 461.55,-221.5 467.55,-221.5 473.55,-227.5 473.55,-233.5 473.55,-233.5 473.55,-309.5 473.55,-309.5 473.55,-315.5 467.55,-321.5 461.55,-321.5 461.55,-321.5 237.825,-321.5 237.825,-321.5 231.825,-321.5 225.825,-315.5 225.825,-309.5 225.825,-309.5 225.825,-233.5 225.825,-233.5 225.825,-227.5 231.825,-221.5 237.825,-221.5"/>
<text text-anchor="middle" x="349.688" y="-306.3" font-family="Times,serif" font-size="14.00">EhrSystem</text>
<polyline fill="none" stroke="black" points="225.825,-299.5 473.55,-299.5 "/>
<text text-anchor="start" x="233.825" y="-284.3" font-family="Times,serif" font-size="14.00">id :integer</text>
<text text-anchor="start" x="233.825" y="-270.3" font-family="Times,serif" font-size="14.00">redox_id :character varying</text>
<text text-anchor="start" x="233.825" y="-256.3" font-family="Times,serif" font-size="14.00">name :character varying</text>
<text text-anchor="start" x="233.825" y="-242.3" font-family="Times,serif" font-size="14.00">created_at :timestamp without time zone</text>
<text text-anchor="start" x="233.825" y="-228.3" font-family="Times,serif" font-size="14.00">updated_at :timestamp without time zone</text>
</g>
<!-- RecentView -->
<g id="node4" class="node"><title>RecentView</title>
<path fill="none" stroke="black" d="M458.825,-0.5C458.825,-0.5 682.55,-0.5 682.55,-0.5 688.55,-0.5 694.55,-6.5 694.55,-12.5 694.55,-12.5 694.55,-116.5 694.55,-116.5 694.55,-122.5 688.55,-128.5 682.55,-128.5 682.55,-128.5 458.825,-128.5 458.825,-128.5 452.825,-128.5 446.825,-122.5 446.825,-116.5 446.825,-116.5 446.825,-12.5 446.825,-12.5 446.825,-6.5 452.825,-0.5 458.825,-0.5"/>
<text text-anchor="middle" x="570.688" y="-113.3" font-family="Times,serif" font-size="14.00">RecentView</text>
<polyline fill="none" stroke="black" points="446.825,-106.5 694.55,-106.5 "/>
<text text-anchor="start" x="454.825" y="-91.3" font-family="Times,serif" font-size="14.00">ehr_system_id :integer</text>
<text text-anchor="start" x="454.825" y="-77.3" font-family="Times,serif" font-size="14.00">user_id :integer</text>
<text text-anchor="start" x="454.825" y="-63.3" font-family="Times,serif" font-size="14.00">patient_id :integer</text>
<text text-anchor="start" x="454.825" y="-49.3" font-family="Times,serif" font-size="14.00">id :integer</text>
<text text-anchor="start" x="454.825" y="-35.3" font-family="Times,serif" font-size="14.00">is_saved :boolean</text>
<text text-anchor="start" x="454.825" y="-21.3" font-family="Times,serif" font-size="14.00">created_at :timestamp without time zone</text>
<text text-anchor="start" x="454.825" y="-7.3" font-family="Times,serif" font-size="14.00">updated_at :timestamp without time zone</text>
</g>
<!-- EhrSystem&#45;&gt;RecentView -->
<g id="edge1" class="edge"><title>EhrSystem&#45;&gt;RecentView</title>
<path fill="none" stroke="#66c449" d="M408.701,-215.759C435.262,-191.121 466.935,-161.741 495.2,-135.523"/>
<ellipse fill="none" stroke="#66c449" cx="405.555" cy="-218.677" rx="4.00002" ry="4.00002"/>
<polygon fill="#66c449" stroke="#66c449" points="495.358,-135.376 505.749,-131.875 499.023,-131.976 502.689,-128.576 502.689,-128.576 502.689,-128.576 499.023,-131.976 499.629,-125.277 495.358,-135.376 495.358,-135.376"/>
</g>
<!-- Patient -->
<g id="node3" class="node"><title>Patient</title>
<path fill="none" stroke="black" d="M503.16,-242.5C503.16,-242.5 638.216,-242.5 638.216,-242.5 644.216,-242.5 650.216,-248.5 650.216,-254.5 650.216,-254.5 650.216,-288.5 650.216,-288.5 650.216,-294.5 644.216,-300.5 638.216,-300.5 638.216,-300.5 503.16,-300.5 503.16,-300.5 497.16,-300.5 491.16,-294.5 491.16,-288.5 491.16,-288.5 491.16,-254.5 491.16,-254.5 491.16,-248.5 497.16,-242.5 503.16,-242.5"/>
<text text-anchor="middle" x="570.688" y="-285.3" font-family="Times,serif" font-size="14.00">Patient</text>
<polyline fill="none" stroke="black" points="491.16,-278.5 650.216,-278.5 "/>
<text text-anchor="start" x="499.16" y="-263.3" font-family="Times,serif" font-size="14.00">id :integer</text>
<text text-anchor="start" x="499.16" y="-249.3" font-family="Times,serif" font-size="14.00">nist_id :character varying</text>
</g>
<!-- Patient&#45;&gt;RecentView -->
<g id="edge2" class="edge"><title>Patient&#45;&gt;RecentView</title>
<path fill="none" stroke="#5526bd" d="M570.688,-234.16C570.688,-207.802 570.688,-171.253 570.688,-138.914"/>
<ellipse fill="none" stroke="#5526bd" cx="570.688" cy="-238.425" rx="4" ry="4"/>
<polygon fill="#5526bd" stroke="#5526bd" points="570.688,-138.581 575.188,-128.581 570.688,-133.581 570.688,-128.581 570.688,-128.581 570.688,-128.581 570.688,-133.581 566.188,-128.581 570.688,-138.581 570.688,-138.581"/>
</g>
<!-- User -->
<g id="node5" class="node"><title>User</title>
<path fill="none" stroke="black" d="M680.053,-165.5C680.053,-165.5 975.323,-165.5 975.323,-165.5 981.323,-165.5 987.323,-171.5 987.323,-177.5 987.323,-177.5 987.323,-365.5 987.323,-365.5 987.323,-371.5 981.323,-377.5 975.323,-377.5 975.323,-377.5 680.053,-377.5 680.053,-377.5 674.053,-377.5 668.053,-371.5 668.053,-365.5 668.053,-365.5 668.053,-177.5 668.053,-177.5 668.053,-171.5 674.053,-165.5 680.053,-165.5"/>
<text text-anchor="middle" x="827.688" y="-362.3" font-family="Times,serif" font-size="14.00">User</text>
<polyline fill="none" stroke="black" points="668.053,-355.5 987.323,-355.5 "/>
<text text-anchor="start" x="676.053" y="-340.3" font-family="Times,serif" font-size="14.00">updated_at :timestamp without time zone</text>
<text text-anchor="start" x="676.053" y="-326.3" font-family="Times,serif" font-size="14.00">email :character varying</text>
<text text-anchor="start" x="676.053" y="-312.3" font-family="Times,serif" font-size="14.00">encrypted_password :character varying</text>
<text text-anchor="start" x="676.053" y="-298.3" font-family="Times,serif" font-size="14.00">reset_password_token :character varying</text>
<text text-anchor="start" x="676.053" y="-284.3" font-family="Times,serif" font-size="14.00">reset_password_sent_at :timestamp without time zone</text>
<text text-anchor="start" x="676.053" y="-270.3" font-family="Times,serif" font-size="14.00">remember_created_at :timestamp without time zone</text>
<text text-anchor="start" x="676.053" y="-256.3" font-family="Times,serif" font-size="14.00">sign_in_count :integer</text>
<text text-anchor="start" x="676.053" y="-242.3" font-family="Times,serif" font-size="14.00">current_sign_in_at :timestamp without time zone</text>
<text text-anchor="start" x="676.053" y="-228.3" font-family="Times,serif" font-size="14.00">last_sign_in_at :timestamp without time zone</text>
<text text-anchor="start" x="676.053" y="-214.3" font-family="Times,serif" font-size="14.00">current_sign_in_ip :character varying</text>
<text text-anchor="start" x="676.053" y="-200.3" font-family="Times,serif" font-size="14.00">last_sign_in_ip :character varying</text>
<text text-anchor="start" x="676.053" y="-186.3" font-family="Times,serif" font-size="14.00">created_at :timestamp without time zone</text>
<text text-anchor="start" x="676.053" y="-172.3" font-family="Times,serif" font-size="14.00">id :integer</text>
</g>
<!-- User&#45;&gt;RecentView -->
<g id="edge3" class="edge"><title>User&#45;&gt;RecentView</title>
<path fill="none" stroke="#037b1f" d="M689.203,-160.036C678.615,-151.59 668.117,-143.216 658.001,-135.147"/>
<ellipse fill="none" stroke="#037b1f" cx="692.673" cy="-162.803" rx="4.00002" ry="4.00002"/>
<polygon fill="#037b1f" stroke="#037b1f" points="657.792,-134.98 652.781,-125.227 653.884,-131.862 649.975,-128.745 649.975,-128.745 649.975,-128.745 653.884,-131.862 647.169,-132.262 657.792,-134.98 657.792,-134.98"/>
</g>
</g>
</svg>
