<?xml version="1.0" encoding="UTF-8" standalone="no"?>
<!DOCTYPE svg PUBLIC "-//W3C//DTD SVG 1.1//EN"
 "http://www.w3.org/Graphics/SVG/1.1/DTD/svg11.dtd">
<!-- Generated by graphviz version 2.38.0 (20140413.2041)
 -->
<!-- Title: models_diagram Pages: 1 -->
<svg width="354pt" height="297pt"
 viewBox="0.00 0.00 353.94 297.00" xmlns="http://www.w3.org/2000/svg" xmlns:xlink="http://www.w3.org/1999/xlink">
<g id="graph0" class="graph" transform="scale(1 1) rotate(0) translate(4 293)">
<title>models_diagram</title>
<polygon fill="none" stroke="none" points="-4,4 -4,-293 349.944,-293 349.944,4 -4,4"/>
<!-- _diagram_info -->
<g id="node1" class="node"><title>_diagram_info</title>
<text text-anchor="start" x="8" y="-274.6" font-family="Times,serif" font-size="13.00">Models diagram</text>
<text text-anchor="start" x="8" y="-261.6" font-family="Times,serif" font-size="13.00">Date: Nov 01 2016 &#45; 16:26</text>
<text text-anchor="start" x="8" y="-248.6" font-family="Times,serif" font-size="13.00">Migration version: 20161101202259</text>
<text text-anchor="start" x="8" y="-235.6" font-family="Times,serif" font-size="13.00">Generated by RailRoady 1.4.2</text>
<text text-anchor="start" x="8" y="-222.6" font-family="Times,serif" font-size="13.00">http://railroady.prestonlee.com</text>
</g>
<!-- ClinicalSummary -->
<g id="node2" class="node"><title>ClinicalSummary</title>
<ellipse fill="none" stroke="black" cx="273.45" cy="-90" rx="72.4894" ry="18"/>
<text text-anchor="middle" x="273.45" y="-85.8" font-family="Times,serif" font-size="14.00">ClinicalSummary</text>
</g>
<!-- RecentView -->
<g id="node5" class="node"><title>RecentView</title>
<ellipse fill="none" stroke="black" cx="214.45" cy="-18" rx="53.0765" ry="18"/>
<text text-anchor="middle" x="214.45" y="-13.8" font-family="Times,serif" font-size="14.00">RecentView</text>
</g>
<!-- ClinicalSummary&#45;&gt;RecentView -->
<g id="edge1" class="edge"><title>ClinicalSummary&#45;&gt;RecentView</title>
<path fill="none" stroke="#b51376" d="M253.931,-65.8427C247.982,-58.7842 241.419,-50.9973 235.38,-43.8327"/>
<ellipse fill="none" stroke="#b51376" cx="256.59" cy="-68.9964" rx="4.00002" ry="4.00002"/>
<polygon fill="#b51376" stroke="#b51376" points="235.045,-43.4353 232.041,-32.8889 231.823,-39.6122 228.6,-35.789 228.6,-35.789 228.6,-35.789 231.823,-39.6122 225.16,-38.6891 235.045,-43.4353 235.045,-43.4353"/>
</g>
<!-- EhrSystem -->
<g id="node3" class="node"><title>EhrSystem</title>
<ellipse fill="none" stroke="black" cx="273.45" cy="-252.5" rx="48.8359" ry="18"/>
<text text-anchor="middle" x="273.45" y="-248.3" font-family="Times,serif" font-size="14.00">EhrSystem</text>
</g>
<!-- EhrSystem&#45;&gt;ClinicalSummary -->
<g id="edge3" class="edge"><title>EhrSystem&#45;&gt;ClinicalSummary</title>
<path fill="none" stroke="#3b1602" d="M267.024,-226.576C262.222,-204.788 257.03,-172.299 260.45,-144 261.489,-135.403 263.443,-126.188 265.527,-117.893"/>
<ellipse fill="none" stroke="#3b1602" cx="267.925" cy="-230.474" rx="4.00001" ry="4.00001"/>
<polygon fill="#3b1602" stroke="#3b1602" points="265.591,-117.653 272.523,-109.156 266.883,-112.823 268.176,-107.993 268.176,-107.993 268.176,-107.993 266.883,-112.823 263.829,-106.829 265.591,-117.653 265.591,-117.653"/>
</g>
<!-- Patient -->
<g id="node4" class="node"><title>Patient</title>
<ellipse fill="none" stroke="black" cx="304.45" cy="-162" rx="34.8371" ry="18"/>
<text text-anchor="middle" x="304.45" y="-157.8" font-family="Times,serif" font-size="14.00">Patient</text>
</g>
<!-- EhrSystem&#45;&gt;Patient -->
<g id="edge2" class="edge"><title>EhrSystem&#45;&gt;Patient</title>
<path fill="none" stroke="#d8f270" d="M282.171,-226.603C286.201,-215.098 290.992,-201.42 295.097,-189.701"/>
<ellipse fill="none" stroke="#d8f270" cx="280.749" cy="-230.661" rx="4.00001" ry="4.00001"/>
<polygon fill="#d8f270" stroke="#d8f270" points="295.185,-189.449 302.738,-181.499 296.838,-184.73 298.491,-180.011 298.491,-180.011 298.491,-180.011 296.838,-184.73 294.244,-178.524 295.185,-189.449 295.185,-189.449"/>
</g>
<!-- Patient&#45;&gt;ClinicalSummary -->
<g id="edge4" class="edge"><title>Patient&#45;&gt;ClinicalSummary</title>
<path fill="none" stroke="#9a3b1e" d="M293.621,-136.548C290.911,-130.428 287.991,-123.835 285.237,-117.616"/>
<ellipse fill="none" stroke="#9a3b1e" cx="295.326" cy="-140.398" rx="4.00002" ry="4.00002"/>
<polygon fill="#9a3b1e" stroke="#9a3b1e" points="285.15,-117.419 285.215,-106.453 283.125,-112.847 281.1,-108.275 281.1,-108.275 281.1,-108.275 283.125,-112.847 276.986,-110.097 285.15,-117.419 285.15,-117.419"/>
</g>
<!-- User -->
<g id="node6" class="node"><title>User</title>
<ellipse fill="none" stroke="black" cx="156.45" cy="-90" rx="27" ry="18"/>
<text text-anchor="middle" x="156.45" y="-85.8" font-family="Times,serif" font-size="14.00">User</text>
</g>
<!-- User&#45;&gt;RecentView -->
<g id="edge5" class="edge"><title>User&#45;&gt;RecentView</title>
<path fill="none" stroke="#9b9262" d="M174.353,-67.3922C180.578,-59.8791 187.607,-51.3964 194.021,-43.6555"/>
<ellipse fill="none" stroke="#9b9262" cx="171.587" cy="-70.7309" rx="4.00002" ry="4.00002"/>
<polygon fill="#9b9262" stroke="#9b9262" points="194.292,-43.3281 204.137,-38.4989 197.482,-39.478 200.672,-35.6278 200.672,-35.6278 200.672,-35.6278 197.482,-39.478 197.207,-32.7568 194.292,-43.3281 194.292,-43.3281"/>
</g>
</g>
</svg>
