<?xml version="1.0" encoding="UTF-8" standalone="no"?>
<!DOCTYPE svg PUBLIC "-//W3C//DTD SVG 1.1//EN"
 "http://www.w3.org/Graphics/SVG/1.1/DTD/svg11.dtd">
<!-- Generated by graphviz version 2.38.0 (20140413.2041)
 -->
<!-- Title: models_diagram Pages: 1 -->
<svg width="659pt" height="509pt"
 viewBox="0.00 0.00 659.16 509.00" xmlns="http://www.w3.org/2000/svg" xmlns:xlink="http://www.w3.org/1999/xlink">
<g id="graph0" class="graph" transform="scale(1 1) rotate(0) translate(4 505)">
<title>models_diagram</title>
<polygon fill="none" stroke="none" points="-4,4 -4,-505 655.163,-505 655.163,4 -4,4"/>
<!-- _diagram_info -->
<g id="node1" class="node"><title>_diagram_info</title>
<text text-anchor="start" x="8.94702" y="-472.6" font-family="Times,serif" font-size="13.00">Models diagram</text>
<text text-anchor="start" x="8.94702" y="-459.6" font-family="Times,serif" font-size="13.00">Date: Sep 17 2016 &#45; 18:28</text>
<text text-anchor="start" x="8.94702" y="-446.6" font-family="Times,serif" font-size="13.00">Migration version: 20160917222052</text>
<text text-anchor="start" x="8.94702" y="-433.6" font-family="Times,serif" font-size="13.00">Generated by RailRoady 1.4.2</text>
<text text-anchor="start" x="8.94702" y="-420.6" font-family="Times,serif" font-size="13.00">http://railroady.prestonlee.com</text>
</g>
<!-- ClinicalSummary -->
<g id="node2" class="node"><title>ClinicalSummary</title>
<path fill="none" stroke="black" d="M348.772,-200.5C348.772,-200.5 572.497,-200.5 572.497,-200.5 578.497,-200.5 584.497,-206.5 584.497,-212.5 584.497,-212.5 584.497,-302.5 584.497,-302.5 584.497,-308.5 578.497,-314.5 572.497,-314.5 572.497,-314.5 348.772,-314.5 348.772,-314.5 342.772,-314.5 336.772,-308.5 336.772,-302.5 336.772,-302.5 336.772,-212.5 336.772,-212.5 336.772,-206.5 342.772,-200.5 348.772,-200.5"/>
<text text-anchor="middle" x="460.635" y="-299.3" font-family="Times,serif" font-size="14.00">ClinicalSummary</text>
<polyline fill="none" stroke="black" points="336.772,-292.5 584.497,-292.5 "/>
<text text-anchor="start" x="344.772" y="-277.3" font-family="Times,serif" font-size="14.00">id :integer</text>
<text text-anchor="start" x="344.772" y="-263.3" font-family="Times,serif" font-size="14.00">document_id :character varying</text>
<text text-anchor="start" x="344.772" y="-249.3" font-family="Times,serif" font-size="14.00">patient_id :integer</text>
<text text-anchor="start" x="344.772" y="-235.3" font-family="Times,serif" font-size="14.00">ehr_system_id :integer</text>
<text text-anchor="start" x="344.772" y="-221.3" font-family="Times,serif" font-size="14.00">created_at :timestamp without time zone</text>
<text text-anchor="start" x="344.772" y="-207.3" font-family="Times,serif" font-size="14.00">updated_at :timestamp without time zone</text>
</g>
<!-- RecentView -->
<g id="node5" class="node"><title>RecentView</title>
<path fill="none" stroke="black" d="M197.772,-0.5C197.772,-0.5 421.497,-0.5 421.497,-0.5 427.497,-0.5 433.497,-6.5 433.497,-12.5 433.497,-12.5 433.497,-102.5 433.497,-102.5 433.497,-108.5 427.497,-114.5 421.497,-114.5 421.497,-114.5 197.772,-114.5 197.772,-114.5 191.772,-114.5 185.772,-108.5 185.772,-102.5 185.772,-102.5 185.772,-12.5 185.772,-12.5 185.772,-6.5 191.772,-0.5 197.772,-0.5"/>
<text text-anchor="middle" x="309.635" y="-99.3" font-family="Times,serif" font-size="14.00">RecentView</text>
<polyline fill="none" stroke="black" points="185.772,-92.5 433.497,-92.5 "/>
<text text-anchor="start" x="193.772" y="-77.3" font-family="Times,serif" font-size="14.00">id :integer</text>
<text text-anchor="start" x="193.772" y="-63.3" font-family="Times,serif" font-size="14.00">user_id :integer</text>
<text text-anchor="start" x="193.772" y="-49.3" font-family="Times,serif" font-size="14.00">is_saved :boolean</text>
<text text-anchor="start" x="193.772" y="-35.3" font-family="Times,serif" font-size="14.00">created_at :timestamp without time zone</text>
<text text-anchor="start" x="193.772" y="-21.3" font-family="Times,serif" font-size="14.00">updated_at :timestamp without time zone</text>
<text text-anchor="start" x="193.772" y="-7.3" font-family="Times,serif" font-size="14.00">clinical_summary_id :integer</text>
</g>
<!-- ClinicalSummary&#45;&gt;RecentView -->
<g id="edge1" class="edge"><title>ClinicalSummary&#45;&gt;RecentView</title>
<path fill="none" stroke="#82447f" d="M412.897,-193.903C395.528,-171.129 375.882,-145.368 358.424,-122.475"/>
<ellipse fill="none" stroke="#82447f" cx="415.342" cy="-197.11" rx="4.00002" ry="4.00002"/>
<polygon fill="#82447f" stroke="#82447f" points="358.411,-122.458 355.925,-111.778 355.379,-118.483 352.347,-114.507 352.347,-114.507 352.347,-114.507 355.379,-118.483 348.769,-117.236 358.411,-122.458 358.411,-122.458"/>
</g>
<!-- EhrSystem -->
<g id="node3" class="node"><title>EhrSystem</title>
<path fill="none" stroke="black" d="M238.772,-400.5C238.772,-400.5 462.497,-400.5 462.497,-400.5 468.497,-400.5 474.497,-406.5 474.497,-412.5 474.497,-412.5 474.497,-488.5 474.497,-488.5 474.497,-494.5 468.497,-500.5 462.497,-500.5 462.497,-500.5 238.772,-500.5 238.772,-500.5 232.772,-500.5 226.772,-494.5 226.772,-488.5 226.772,-488.5 226.772,-412.5 226.772,-412.5 226.772,-406.5 232.772,-400.5 238.772,-400.5"/>
<text text-anchor="middle" x="350.635" y="-485.3" font-family="Times,serif" font-size="14.00">EhrSystem</text>
<polyline fill="none" stroke="black" points="226.772,-478.5 474.497,-478.5 "/>
<text text-anchor="start" x="234.772" y="-463.3" font-family="Times,serif" font-size="14.00">id :integer</text>
<text text-anchor="start" x="234.772" y="-449.3" font-family="Times,serif" font-size="14.00">redox_id :character varying</text>
<text text-anchor="start" x="234.772" y="-435.3" font-family="Times,serif" font-size="14.00">name :character varying</text>
<text text-anchor="start" x="234.772" y="-421.3" font-family="Times,serif" font-size="14.00">created_at :timestamp without time zone</text>
<text text-anchor="start" x="234.772" y="-407.3" font-family="Times,serif" font-size="14.00">updated_at :timestamp without time zone</text>
</g>
<!-- EhrSystem&#45;&gt;ClinicalSummary -->
<g id="edge2" class="edge"><title>EhrSystem&#45;&gt;ClinicalSummary</title>
<path fill="none" stroke="#c46424" d="M383.11,-393.112C395.7,-371.251 410.193,-346.085 423.217,-323.471"/>
<ellipse fill="none" stroke="#c46424" cx="380.959" cy="-396.846" rx="4.00002" ry="4.00002"/>
<polygon fill="#c46424" stroke="#c46424" points="423.327,-323.28 432.217,-316.86 425.822,-318.947 428.318,-314.614 428.318,-314.614 428.318,-314.614 425.822,-318.947 424.418,-312.368 423.327,-323.28 423.327,-323.28"/>
</g>
<!-- Patient -->
<g id="node4" class="node"><title>Patient</title>
<path fill="none" stroke="black" d="M504.107,-421.5C504.107,-421.5 639.163,-421.5 639.163,-421.5 645.163,-421.5 651.163,-427.5 651.163,-433.5 651.163,-433.5 651.163,-467.5 651.163,-467.5 651.163,-473.5 645.163,-479.5 639.163,-479.5 639.163,-479.5 504.107,-479.5 504.107,-479.5 498.107,-479.5 492.107,-473.5 492.107,-467.5 492.107,-467.5 492.107,-433.5 492.107,-433.5 492.107,-427.5 498.107,-421.5 504.107,-421.5"/>
<text text-anchor="middle" x="571.635" y="-464.3" font-family="Times,serif" font-size="14.00">Patient</text>
<polyline fill="none" stroke="black" points="492.107,-457.5 651.163,-457.5 "/>
<text text-anchor="start" x="500.107" y="-442.3" font-family="Times,serif" font-size="14.00">id :integer</text>
<text text-anchor="start" x="500.107" y="-428.3" font-family="Times,serif" font-size="14.00">nist_id :character varying</text>
</g>
<!-- Patient&#45;&gt;ClinicalSummary -->
<g id="edge3" class="edge"><title>Patient&#45;&gt;ClinicalSummary</title>
<path fill="none" stroke="#12cf80" d="M551.089,-414.146C536.37,-388.82 516.121,-353.976 498.512,-323.676"/>
<ellipse fill="none" stroke="#12cf80" cx="553.246" cy="-417.859" rx="4.00002" ry="4.00002"/>
<polygon fill="#12cf80" stroke="#12cf80" points="498.407,-323.496 497.273,-312.589 495.895,-319.173 493.383,-314.85 493.383,-314.85 493.383,-314.85 495.895,-319.173 489.492,-317.111 498.407,-323.496 498.407,-323.496"/>
</g>
<!-- User -->
<g id="node6" class="node"><title>User</title>
<path fill="none" stroke="black" d="M12,-151.5C12,-151.5 307.27,-151.5 307.27,-151.5 313.27,-151.5 319.27,-157.5 319.27,-163.5 319.27,-163.5 319.27,-351.5 319.27,-351.5 319.27,-357.5 313.27,-363.5 307.27,-363.5 307.27,-363.5 12,-363.5 12,-363.5 6,-363.5 0,-357.5 0,-351.5 0,-351.5 0,-163.5 0,-163.5 0,-157.5 6,-151.5 12,-151.5"/>
<text text-anchor="middle" x="159.635" y="-348.3" font-family="Times,serif" font-size="14.00">User</text>
<polyline fill="none" stroke="black" points="0,-341.5 319.27,-341.5 "/>
<text text-anchor="start" x="8" y="-326.3" font-family="Times,serif" font-size="14.00">updated_at :timestamp without time zone</text>
<text text-anchor="start" x="8" y="-312.3" font-family="Times,serif" font-size="14.00">email :character varying</text>
<text text-anchor="start" x="8" y="-298.3" font-family="Times,serif" font-size="14.00">encrypted_password :character varying</text>
<text text-anchor="start" x="8" y="-284.3" font-family="Times,serif" font-size="14.00">reset_password_token :character varying</text>
<text text-anchor="start" x="8" y="-270.3" font-family="Times,serif" font-size="14.00">reset_password_sent_at :timestamp without time zone</text>
<text text-anchor="start" x="8" y="-256.3" font-family="Times,serif" font-size="14.00">remember_created_at :timestamp without time zone</text>
<text text-anchor="start" x="8" y="-242.3" font-family="Times,serif" font-size="14.00">sign_in_count :integer</text>
<text text-anchor="start" x="8" y="-228.3" font-family="Times,serif" font-size="14.00">current_sign_in_at :timestamp without time zone</text>
<text text-anchor="start" x="8" y="-214.3" font-family="Times,serif" font-size="14.00">last_sign_in_at :timestamp without time zone</text>
<text text-anchor="start" x="8" y="-200.3" font-family="Times,serif" font-size="14.00">current_sign_in_ip :character varying</text>
<text text-anchor="start" x="8" y="-186.3" font-family="Times,serif" font-size="14.00">last_sign_in_ip :character varying</text>
<text text-anchor="start" x="8" y="-172.3" font-family="Times,serif" font-size="14.00">created_at :timestamp without time zone</text>
<text text-anchor="start" x="8" y="-158.3" font-family="Times,serif" font-size="14.00">id :integer</text>
</g>
<!-- User&#45;&gt;RecentView -->
<g id="edge4" class="edge"><title>User&#45;&gt;RecentView</title>
<path fill="none" stroke="#2f1a94" d="M244.188,-144.89C249.874,-137.385 255.485,-129.977 260.889,-122.845"/>
<ellipse fill="none" stroke="#2f1a94" cx="241.662" cy="-148.224" rx="4.00002" ry="4.00002"/>
<polygon fill="#2f1a94" stroke="#2f1a94" points="261.09,-122.579 270.715,-117.326 264.109,-118.594 267.128,-114.609 267.128,-114.609 267.128,-114.609 264.109,-118.594 263.541,-111.891 261.09,-122.579 261.09,-122.579"/>
</g>
</g>
</svg>
