<?xml version="1.0" encoding="UTF-8" standalone="no"?>
<!DOCTYPE svg PUBLIC "-//W3C//DTD SVG 1.1//EN"
 "http://www.w3.org/Graphics/SVG/1.1/DTD/svg11.dtd">
<!-- Generated by graphviz version 2.38.0 (20140413.2041)
 -->
<!-- Title: models_diagram Pages: 1 -->
<svg width="419pt" height="225pt"
 viewBox="0.00 0.00 419.36 225.00" xmlns="http://www.w3.org/2000/svg" xmlns:xlink="http://www.w3.org/1999/xlink">
<g id="graph0" class="graph" transform="scale(1 1) rotate(0) translate(4 221)">
<title>models_diagram</title>
<polygon fill="none" stroke="none" points="-4,4 -4,-221 415.356,-221 415.356,4 -4,4"/>
<!-- _diagram_info -->
<g id="node1" class="node"><title>_diagram_info</title>
<text text-anchor="start" x="8" y="-202.6" font-family="Times,serif" font-size="13.00">Models diagram</text>
<text text-anchor="start" x="8" y="-189.6" font-family="Times,serif" font-size="13.00">Date: Sep 17 2016 &#45; 19:15</text>
<text text-anchor="start" x="8" y="-176.6" font-family="Times,serif" font-size="13.00">Migration version: 20160917222052</text>
<text text-anchor="start" x="8" y="-163.6" font-family="Times,serif" font-size="13.00">Generated by RailRoady 1.4.2</text>
<text text-anchor="start" x="8" y="-150.6" font-family="Times,serif" font-size="13.00">http://railroady.prestonlee.com</text>
</g>
<!-- ClinicalSummary -->
<g id="node2" class="node"><title>ClinicalSummary</title>
<ellipse fill="none" stroke="black" cx="325.688" cy="-90" rx="72.4894" ry="18"/>
<text text-anchor="middle" x="325.688" y="-85.8" font-family="Times,serif" font-size="14.00">ClinicalSummary</text>
</g>
<!-- RecentView -->
<g id="node5" class="node"><title>RecentView</title>
<ellipse fill="none" stroke="black" cx="266.688" cy="-18" rx="53.0765" ry="18"/>
<text text-anchor="middle" x="266.688" y="-13.8" font-family="Times,serif" font-size="14.00">RecentView</text>
</g>
<!-- ClinicalSummary&#45;&gt;RecentView -->
<g id="edge1" class="edge"><title>ClinicalSummary&#45;&gt;RecentView</title>
<path fill="none" stroke="#e62313" d="M306.169,-65.8427C300.22,-58.7842 293.657,-50.9973 287.618,-43.8327"/>
<ellipse fill="none" stroke="#e62313" cx="308.828" cy="-68.9964" rx="4.00002" ry="4.00002"/>
<polygon fill="#e62313" stroke="#e62313" points="287.283,-43.4353 284.279,-32.8889 284.061,-39.6122 280.838,-35.789 280.838,-35.789 280.838,-35.789 284.061,-39.6122 277.398,-38.6891 287.283,-43.4353 287.283,-43.4353"/>
</g>
<!-- EhrSystem -->
<g id="node3" class="node"><title>EhrSystem</title>
<ellipse fill="none" stroke="black" cx="274.688" cy="-180.5" rx="48.8359" ry="18"/>
<text text-anchor="middle" x="274.688" y="-176.3" font-family="Times,serif" font-size="14.00">EhrSystem</text>
</g>
<!-- EhrSystem&#45;&gt;ClinicalSummary -->
<g id="edge2" class="edge"><title>EhrSystem&#45;&gt;ClinicalSummary</title>
<path fill="none" stroke="#811ece" d="M288.561,-155.426C295.454,-143.465 303.789,-129.001 310.814,-116.811"/>
<ellipse fill="none" stroke="#811ece" cx="286.518" cy="-158.971" rx="4.00002" ry="4.00002"/>
<polygon fill="#811ece" stroke="#811ece" points="310.892,-116.676 319.784,-110.258 313.388,-112.343 315.885,-108.011 315.885,-108.011 315.885,-108.011 313.388,-112.343 311.986,-105.764 310.892,-116.676 310.892,-116.676"/>
</g>
<!-- Patient -->
<g id="node4" class="node"><title>Patient</title>
<ellipse fill="none" stroke="black" cx="376.688" cy="-180.5" rx="34.8371" ry="18"/>
<text text-anchor="middle" x="376.688" y="-176.3" font-family="Times,serif" font-size="14.00">Patient</text>
</g>
<!-- Patient&#45;&gt;ClinicalSummary -->
<g id="edge3" class="edge"><title>Patient&#45;&gt;ClinicalSummary</title>
<path fill="none" stroke="#49b336" d="M363.033,-155.805C356.089,-143.756 347.639,-129.092 340.534,-116.763"/>
<ellipse fill="none" stroke="#49b336" cx="365.098" cy="-159.388" rx="4.00002" ry="4.00002"/>
<polygon fill="#49b336" stroke="#49b336" points="340.404,-116.537 339.31,-105.626 337.907,-112.205 335.411,-107.872 335.411,-107.872 335.411,-107.872 337.907,-112.205 331.512,-110.119 340.404,-116.537 340.404,-116.537"/>
</g>
<!-- User -->
<g id="node6" class="node"><title>User</title>
<ellipse fill="none" stroke="black" cx="208.688" cy="-90" rx="27" ry="18"/>
<text text-anchor="middle" x="208.688" y="-85.8" font-family="Times,serif" font-size="14.00">User</text>
</g>
<!-- User&#45;&gt;RecentView -->
<g id="edge4" class="edge"><title>User&#45;&gt;RecentView</title>
<path fill="none" stroke="#2ebc8d" d="M226.591,-67.3922C232.817,-59.8791 239.845,-51.3964 246.259,-43.6555"/>
<ellipse fill="none" stroke="#2ebc8d" cx="223.825" cy="-70.7309" rx="4.00002" ry="4.00002"/>
<polygon fill="#2ebc8d" stroke="#2ebc8d" points="246.53,-43.3281 256.375,-38.4989 249.72,-39.478 252.91,-35.6278 252.91,-35.6278 252.91,-35.6278 249.72,-39.478 249.445,-32.7568 246.53,-43.3281 246.53,-43.3281"/>
</g>
</g>
</svg>
