<?xml version="1.0" encoding="UTF-8" standalone="no"?>
<!DOCTYPE svg PUBLIC "-//W3C//DTD SVG 1.1//EN"
 "http://www.w3.org/Graphics/SVG/1.1/DTD/svg11.dtd">
<!-- Generated by graphviz version 2.38.0 (20140413.2041)
 -->
<!-- Title: models_diagram Pages: 1 -->
<svg width="492pt" height="153pt"
 viewBox="0.00 0.00 491.69 153.00" xmlns="http://www.w3.org/2000/svg" xmlns:xlink="http://www.w3.org/1999/xlink">
<g id="graph0" class="graph" transform="scale(1 1) rotate(0) translate(4 149)">
<title>models_diagram</title>
<polygon fill="none" stroke="none" points="-4,4 -4,-149 487.688,-149 487.688,4 -4,4"/>
<!-- _diagram_info -->
<g id="node1" class="node"><title>_diagram_info</title>
<text text-anchor="start" x="8" y="-130.6" font-family="Times,serif" font-size="13.00">Models diagram</text>
<text text-anchor="start" x="8" y="-117.6" font-family="Times,serif" font-size="13.00">Date: Sep 15 2016 &#45; 16:46</text>
<text text-anchor="start" x="8" y="-104.6" font-family="Times,serif" font-size="13.00">Migration version: 20160915171256</text>
<text text-anchor="start" x="8" y="-91.6" font-family="Times,serif" font-size="13.00">Generated by RailRoady 1.4.2</text>
<text text-anchor="start" x="8" y="-78.6" font-family="Times,serif" font-size="13.00">http://railroady.prestonlee.com</text>
</g>
<!-- EhrSystem -->
<g id="node2" class="node"><title>EhrSystem</title>
<ellipse fill="none" stroke="black" cx="274.688" cy="-108.5" rx="48.8359" ry="18"/>
<text text-anchor="middle" x="274.688" y="-104.3" font-family="Times,serif" font-size="14.00">EhrSystem</text>
</g>
<!-- RecentView -->
<g id="node4" class="node"><title>RecentView</title>
<ellipse fill="none" stroke="black" cx="376.688" cy="-18" rx="53.0765" ry="18"/>
<text text-anchor="middle" x="376.688" y="-13.8" font-family="Times,serif" font-size="14.00">RecentView</text>
</g>
<!-- EhrSystem&#45;&gt;RecentView -->
<g id="edge1" class="edge"><title>EhrSystem&#45;&gt;RecentView</title>
<path fill="none" stroke="#cebfa0" d="M299.308,-86.1384C314.769,-72.724 334.692,-55.4372 350.451,-41.7644"/>
<ellipse fill="none" stroke="#cebfa0" cx="295.945" cy="-89.0565" rx="4.00002" ry="4.00002"/>
<polygon fill="#cebfa0" stroke="#cebfa0" points="350.713,-41.537 361.215,-38.3824 354.49,-38.2602 358.266,-34.9834 358.266,-34.9834 358.266,-34.9834 354.49,-38.2602 355.317,-31.5845 350.713,-41.537 350.713,-41.537"/>
</g>
<!-- Patient -->
<g id="node3" class="node"><title>Patient</title>
<ellipse fill="none" stroke="black" cx="376.688" cy="-108.5" rx="34.8371" ry="18"/>
<text text-anchor="middle" x="376.688" y="-104.3" font-family="Times,serif" font-size="14.00">Patient</text>
</g>
<!-- Patient&#45;&gt;RecentView -->
<g id="edge2" class="edge"><title>Patient&#45;&gt;RecentView</title>
<path fill="none" stroke="#aed395" d="M376.688,-82.189C376.688,-70.9711 376.688,-57.7517 376.688,-46.3113"/>
<ellipse fill="none" stroke="#aed395" cx="376.688" cy="-86.4363" rx="4" ry="4"/>
<polygon fill="#aed395" stroke="#aed395" points="376.688,-46.0113 381.188,-36.0113 376.688,-41.0113 376.688,-36.0113 376.688,-36.0113 376.688,-36.0113 376.688,-41.0113 372.188,-36.0113 376.688,-46.0113 376.688,-46.0113"/>
</g>
<!-- User -->
<g id="node5" class="node"><title>User</title>
<ellipse fill="none" stroke="black" cx="456.688" cy="-108.5" rx="27" ry="18"/>
<text text-anchor="middle" x="456.688" y="-104.3" font-family="Times,serif" font-size="14.00">User</text>
</g>
<!-- User&#45;&gt;RecentView -->
<g id="edge3" class="edge"><title>User&#45;&gt;RecentView</title>
<path fill="none" stroke="#1bbdf8" d="M437.418,-86.1824C425.679,-73.1962 410.648,-56.5686 398.477,-43.1046"/>
<ellipse fill="none" stroke="#1bbdf8" cx="440.434" cy="-89.5198" rx="4.00002" ry="4.00002"/>
<polygon fill="#1bbdf8" stroke="#1bbdf8" points="398.394,-43.0126 395.026,-32.5766 395.041,-39.3034 391.688,-35.5942 391.688,-35.5942 391.688,-35.5942 395.041,-39.3034 388.35,-38.6119 398.394,-43.0126 398.394,-43.0126"/>
</g>
</g>
</svg>
