<?xml version="1.0" encoding="UTF-8" standalone="no"?>
<!DOCTYPE svg PUBLIC "-//W3C//DTD SVG 1.1//EN"
 "http://www.w3.org/Graphics/SVG/1.1/DTD/svg11.dtd">
<!-- Generated by graphviz version 2.38.0 (20140413.2041)
 -->
<!-- Title: models_diagram Pages: 1 -->
<svg width="518pt" height="153pt"
 viewBox="0.00 0.00 517.98 153.00" xmlns="http://www.w3.org/2000/svg" xmlns:xlink="http://www.w3.org/1999/xlink">
<g id="graph0" class="graph" transform="scale(1 1) rotate(0) translate(4 149)">
<title>models_diagram</title>
<polygon fill="none" stroke="none" points="-4,4 -4,-149 513.976,-149 513.976,4 -4,4"/>
<!-- _diagram_info -->
<g id="node1" class="node"><title>_diagram_info</title>
<text text-anchor="start" x="8" y="-130.6" font-family="Times,serif" font-size="13.00">Models diagram</text>
<text text-anchor="start" x="8" y="-117.6" font-family="Times,serif" font-size="13.00">Date: Sep 17 2016 &#45; 18:17</text>
<text text-anchor="start" x="8" y="-104.6" font-family="Times,serif" font-size="13.00">Migration version: 20160917221347</text>
<text text-anchor="start" x="8" y="-91.6" font-family="Times,serif" font-size="13.00">Generated by RailRoady 1.4.2</text>
<text text-anchor="start" x="8" y="-78.6" font-family="Times,serif" font-size="13.00">http://railroady.prestonlee.com</text>
</g>
<!-- ClinicalSummary -->
<g id="node2" class="node"><title>ClinicalSummary</title>
<ellipse fill="none" stroke="black" cx="293.688" cy="-18" rx="72.4894" ry="18"/>
<text text-anchor="middle" x="293.688" y="-13.8" font-family="Times,serif" font-size="14.00">ClinicalSummary</text>
</g>
<!-- EhrSystem -->
<g id="node3" class="node"><title>EhrSystem</title>
<ellipse fill="none" stroke="black" cx="274.688" cy="-108.5" rx="48.8359" ry="18"/>
<text text-anchor="middle" x="274.688" y="-104.3" font-family="Times,serif" font-size="14.00">EhrSystem</text>
</g>
<!-- EhrSystem&#45;&gt;ClinicalSummary -->
<g id="edge1" class="edge"><title>EhrSystem&#45;&gt;ClinicalSummary</title>
<path fill="none" stroke="#bd9fa8" d="M280.033,-82.6031C282.478,-71.2146 285.38,-57.6962 287.879,-46.057"/>
<ellipse fill="none" stroke="#bd9fa8" cx="279.191" cy="-86.5254" rx="4.00001" ry="4.00001"/>
<polygon fill="#bd9fa8" stroke="#bd9fa8" points="287.936,-45.7885 294.435,-36.9559 288.986,-40.8999 290.036,-36.0113 290.036,-36.0113 290.036,-36.0113 288.986,-40.8999 285.636,-35.0667 287.936,-45.7885 287.936,-45.7885"/>
</g>
<!-- Patient -->
<g id="node4" class="node"><title>Patient</title>
<ellipse fill="none" stroke="black" cx="376.688" cy="-108.5" rx="34.8371" ry="18"/>
<text text-anchor="middle" x="376.688" y="-104.3" font-family="Times,serif" font-size="14.00">Patient</text>
</g>
<!-- Patient&#45;&gt;ClinicalSummary -->
<g id="edge2" class="edge"><title>Patient&#45;&gt;ClinicalSummary</title>
<path fill="none" stroke="#f5e42d" d="M356.73,-86.2194C344.59,-73.275 329.047,-56.7022 316.432,-43.2515"/>
<ellipse fill="none" stroke="#f5e42d" cx="359.494" cy="-89.1668" rx="4.00002" ry="4.00002"/>
<polygon fill="#f5e42d" stroke="#f5e42d" points="316.232,-43.0378 312.673,-32.6653 312.811,-39.3908 309.391,-35.7437 309.391,-35.7437 309.391,-35.7437 312.811,-39.3908 306.109,-38.8221 316.232,-43.0378 316.232,-43.0378"/>
</g>
<!-- RecentView -->
<g id="node5" class="node"><title>RecentView</title>
<ellipse fill="none" stroke="black" cx="456.688" cy="-18" rx="53.0765" ry="18"/>
<text text-anchor="middle" x="456.688" y="-13.8" font-family="Times,serif" font-size="14.00">RecentView</text>
</g>
<!-- User -->
<g id="node6" class="node"><title>User</title>
<ellipse fill="none" stroke="black" cx="456.688" cy="-108.5" rx="27" ry="18"/>
<text text-anchor="middle" x="456.688" y="-104.3" font-family="Times,serif" font-size="14.00">User</text>
</g>
<!-- User&#45;&gt;RecentView -->
<g id="edge3" class="edge"><title>User&#45;&gt;RecentView</title>
<path fill="none" stroke="#70585d" d="M456.688,-82.189C456.688,-70.9711 456.688,-57.7517 456.688,-46.3113"/>
<ellipse fill="none" stroke="#70585d" cx="456.688" cy="-86.4363" rx="4" ry="4"/>
<polygon fill="#70585d" stroke="#70585d" points="456.688,-46.0113 461.188,-36.0113 456.688,-41.0113 456.688,-36.0113 456.688,-36.0113 456.688,-36.0113 456.688,-41.0113 452.188,-36.0113 456.688,-46.0113 456.688,-46.0113"/>
</g>
</g>
</svg>
